  0
SECTION
  2
HEADER
  9
$ACADVER
  1
AC1014
  9
$HANDSEED
  5
FFFF
  9
$MEASUREMENT
 70
     1
  0
ENDSEC
  0
SECTION
  2
TABLES
  0
TABLE
  2
VPORT
  5
8
330
0
100
AcDbSymbolTable
 70
     4
  0
VPORT
  5
2E
330
8
100
AcDbSymbolTableRecord
100
AcDbViewportTableRecord
  2
*ACTIVE
 70
     0
 10
0.0
 20
0.0
 11
1.0
 21
1.0
 12
210.0
 22
148.5
 13
0.0
 23
0.0
 14
10.0
 24
10.0
 15
10.0
 25
10.0
 16
0.0
 26
0.0
 36
1.0
 17
0.0
 27
0.0
 37
0.0
 40
341.0
 41
1.24
 42
50.0
 43
0.0
 44
0.0
 50
0.0
 51
0.0
 71
     0
 72
   100
 73
     1
 74
     3
 75
     0
 76
     0
 77
     0
 78
     0
  0
ENDTAB
  0
TABLE
  2
LTYPE
  5
5
330
0
100
AcDbSymbolTable
 70
     1
  0
LTYPE
  5
14
330
5
100
AcDbSymbolTableRecord
100
AcDbLinetypeTableRecord
  2
BYBLOCK
 70
     0
  3

 72
    65
 73
     0
 40
0.0
  0
LTYPE
  5
15
330
5
100
AcDbSymbolTableRecord
100
AcDbLinetypeTableRecord
  2
BYLAYER
 70
     0
  3

 72
    65
 73
     0
 40
0.0
  0
LTYPE
  5
16
330
5
100
AcDbSymbolTableRecord
100
AcDbLinetypeTableRecord
  2
CONTINUOUS
 70
     0
  3
Solid line
 72
    65
 73
     0
 40
0.0
  0
ENDTAB
  0
TABLE
  2
LAYER
  5
2
100
AcDbSymbolTable
 70
1
  0
LAYER
  5
50
100
AcDbSymbolTableRecord
100
AcDbLayerTableRecord
  2
0
 70
0
  6
CONTINUOUS
  0
ENDTAB
  0
TABLE
  2
STYLE
  5
3
330
0
100
AcDbSymbolTable
 70
     1
  0
STYLE
  5
11
330
3
100
AcDbSymbolTableRecord
100
AcDbTextStyleTableRecord
  2
STANDARD
 70
     0
 40
0.0
 41
1.0
 50
0.0
 71
     0
 42
2.5
  3
txt
  4

  0
ENDTAB
  0
TABLE
  2
VIEW
  5
6
330
0
100
AcDbSymbolTable
 70
     0
  0
ENDTAB
  0
TABLE
  2
UCS
  5
7
330
0
100
AcDbSymbolTable
 70
     0
  0
ENDTAB
  0
TABLE
  2
APPID
  5
9
330
0
100
AcDbSymbolTable
 70
     2
  0
APPID
  5
12
330
9
100
AcDbSymbolTableRecord
100
AcDbRegAppTableRecord
  2
ACAD
 70
     0
  0
ENDTAB
  0
TABLE
  2
DIMSTYLE
  5
A
330
0
100
AcDbSymbolTable
 70
     1
  0
DIMSTYLE
105
27
330
A
100
AcDbSymbolTableRecord
100
AcDbDimStyleTableRecord
  2
ISO-25
 70
     0
  3

  4

  5

  6

  7

 40
1.0
 41
2.5
 42
0.625
 43
3.75
 44
1.25
 45
0.0
 46
0.0
 47
0.0
 48
0.0
140
2.5
141
2.5
142
0.0
143
0.03937007874016
144
1.0
145
0.0
146
1.0
147
0.625
 71
     0
 72
     0
 73
     0
 74
     0
 75
     0
 76
     0
 77
     1
 78
     8
170
     0
171
     3
172
     1
173
     0
174
     0
175
     0
176
     0
177
     0
178
     0
270
     2
271
     2
272
     2
273
     2
274
     3
340
11
275
     0
280
     0
281
     0
282
     0
283
     0
284
     8
285
     0
286
     0
287
     3
288
     0
  0
ENDTAB
  0
TABLE
  2
BLOCK_RECORD
  5
1
330
0
100
AcDbSymbolTable
 70
     1
  0
BLOCK_RECORD
  5
1F
330
1
100
AcDbSymbolTableRecord
100
AcDbBlockTableRecord
  2
*MODEL_SPACE
  0
BLOCK_RECORD
  5
1B
330
1
100
AcDbSymbolTableRecord
100
AcDbBlockTableRecord
  2
*PAPER_SPACE
  0
ENDTAB
  0
ENDSEC
  0
SECTION
  2
BLOCKS
  0
BLOCK
  5
20
330
1F
100
AcDbEntity
  8
0
100
AcDbBlockBegin
  2
*MODEL_SPACE
 70
     0
 10
0.0
 20
0.0
 30
0.0
  3
*MODEL_SPACE
  1

  0
ENDBLK
  5
21
330
1F
100
AcDbEntity
  8
0
100
AcDbBlockEnd
  0
BLOCK
  5
1C
330
1B
100
AcDbEntity
 67
     1
  8
0
100
AcDbBlockBegin
  2
*PAPER_SPACE
  1

  0
ENDBLK
  5
1D
330
1B
100
AcDbEntity
 67
     1
  8
0
100
AcDbBlockEnd
  0
ENDSEC
  0
SECTION
  2
ENTITIES
  0
SPLINE
  5
100
100
AcDbEntity
  8
0
 62
7
100
AcDbSpline
 70
8
 71
3
 72
8
 73
4
 74
0
 40
0
 40
0
 40
0
 40
0
 40
1
 40
1
 40
1
 40
1
 10
546.510930
 20
539.232236
 30
0.0
 10
546.510930
 20
539.232236
 30
0.0
 10
546.510930
 20
466.426886
 30
0.0
 10
546.510930
 20
466.426886
 30
0.0
  0
SPLINE
  5
101
100
AcDbEntity
  8
0
 62
7
100
AcDbSpline
 70
8
 71
3
 72
8
 73
4
 74
0
 40
0
 40
0
 40
0
 40
0
 40
1
 40
1
 40
1
 40
1
 10
546.510930
 20
466.426886
 30
0.0
 10
546.510960
 20
464.707140
 30
0.0
 10
547.546929
 20
463.156747
 30
0.0
 10
549.135772
 20
462.498641
 30
0.0
  0
SPLINE
  5
102
100
AcDbEntity
  8
0
 62
7
100
AcDbSpline
 70
8
 71
3
 72
8
 73
4
 74
0
 40
0
 40
0
 40
0
 40
0
 40
1
 40
1
 40
1
 40
1
 10
549.135772
 20
462.498641
 30
0.0
 10
550.724616
 20
461.840536
 30
0.0
 10
552.553444
 20
462.204319
 30
0.0
 10
553.769490
 20
463.420361
 30
0.0
  0
SPLINE
  5
103
100
AcDbEntity
  8
0
 62
7
100
AcDbSpline
 70
8
 71
3
 72
8
 73
4
 74
0
 40
0
 40
0
 40
0
 40
0
 40
1
 40
1
 40
1
 40
1
 10
553.769490
 20
463.420361
 30
0.0
 10
554.566872
 20
464.217742
 30
0.0
 10
555.014846
 20
465.299218
 30
0.0
 10
555.014865
 20
466.426886
 30
0.0
  0
SPLINE
  5
104
100
AcDbEntity
  8
0
 62
7
100
AcDbSpline
 70
8
 71
3
 72
8
 73
4
 74
0
 40
0
 40
0
 40
0
 40
0
 40
1
 40
1
 40
1
 40
1
 10
555.014865
 20
466.426886
 30
0.0
 10
555.014865
 20
466.426886
 30
0.0
 10
555.014865
 20
474.222161
 30
0.0
 10
555.014865
 20
474.222161
 30
0.0
  0
SPLINE
  5
105
100
AcDbEntity
  8
0
 62
7
100
AcDbSpline
 70
8
 71
3
 72
8
 73
4
 74
0
 40
0
 40
0
 40
0
 40
0
 40
1
 40
1
 40
1
 40
1
 10
555.014865
 20
474.222161
 30
0.0
 10
555.014849
 20
477.412776
 30
0.0
 10
557.147033
 20
480.209984
 30
0.0
 10
560.223586
 20
481.055470
 30
0.0
  0
SPLINE
  5
106
100
AcDbEntity
  8
0
 62
7
100
AcDbSpline
 70
8
 71
3
 72
8
 73
4
 74
0
 40
0
 40
0
 40
0
 40
0
 40
1
 40
1
 40
1
 40
1
 10
560.223586
 20
481.055470
 30
0.0
 10
563.300139
 20
481.900956
 30
0.0
 10
566.562353
 20
480.586216
 30
0.0
 10
568.192860
 20
477.843686
 30
0.0
  0
SPLINE
  5
107
100
AcDbEntity
  8
0
 62
7
100
AcDbSpline
 70
8
 71
3
 72
8
 73
4
 74
0
 40
0
 40
0
 40
0
 40
0
 40
1
 40
1
 40
1
 40
1
 10
568.192860
 20
477.843686
 30
0.0
 10
568.844281
 20
476.747991
 30
0.0
 10
569.188101
 20
475.496875
 30
0.0
 10
569.188095
 20
474.222161
 30
0.0
  0
SPLINE
  5
108
100
AcDbEntity
  8
0
 62
7
100
AcDbSpline
 70
8
 71
3
 72
8
 73
4
 74
0
 40
0
 40
0
 40
0
 40
0
 40
1
 40
1
 40
1
 40
1
 10
569.188095
 20
474.222161
 30
0.0
 10
569.188095
 20
474.222161
 30
0.0
 10
569.188095
 20
424.615886
 30
0.0
 10
569.188095
 20
424.615886
 30
0.0
  0
SPLINE
  5
109
100
AcDbEntity
  8
0
 62
7
100
AcDbSpline
 70
8
 71
3
 72
8
 73
4
 74
0
 40
0
 40
0
 40
0
 40
0
 40
1
 40
1
 40
1
 40
1
 10
569.188095
 20
424.615886
 30
0.0
 10
569.188088
 20
423.341198
 30
0.0
 10
568.844268
 20
422.090109
 30
0.0
 10
568.192860
 20
420.994436
 30
0.0
  0
SPLINE
  5
10a
100
AcDbEntity
  8
0
 62
7
100
AcDbSpline
 70
8
 71
3
 72
8
 73
4
 74
0
 40
0
 40
0
 40
0
 40
0
 40
1
 40
1
 40
1
 40
1
 10
568.192860
 20
420.994436
 30
0.0
 10
566.562360
 20
418.251918
 30
0.0
 10
563.300166
 20
416.937176
 30
0.0
 10
560.223622
 20
417.782642
 30
0.0
  0
SPLINE
  5
10b
100
AcDbEntity
  8
0
 62
7
100
AcDbSpline
 70
8
 71
3
 72
8
 73
4
 74
0
 40
0
 40
0
 40
0
 40
0
 40
1
 40
1
 40
1
 40
1
 10
560.223622
 20
417.782642
 30
0.0
 10
557.147078
 20
418.628109
 30
0.0
 10
555.014883
 20
421.425285
 30
0.0
 10
555.014865
 20
424.615886
 30
0.0
  0
SPLINE
  5
10c
100
AcDbEntity
  8
0
 62
7
100
AcDbSpline
 70
8
 71
3
 72
8
 73
4
 74
0
 40
0
 40
0
 40
0
 40
0
 40
1
 40
1
 40
1
 40
1
 10
555.014865
 20
424.615886
 30
0.0
 10
555.014865
 20
424.615886
 30
0.0
 10
555.014865
 20
432.411161
 30
0.0
 10
555.014865
 20
432.411161
 30
0.0
  0
SPLINE
  5
10d
100
AcDbEntity
  8
0
 62
7
100
AcDbSpline
 70
8
 71
3
 72
8
 73
4
 74
0
 40
0
 40
0
 40
0
 40
0
 40
1
 40
1
 40
1
 40
1
 10
555.014865
 20
432.411161
 30
0.0
 10
555.014866
 20
433.538855
 30
0.0
 10
554.566891
 20
434.620362
 30
0.0
 10
553.769490
 20
435.417761
 30
0.0
  0
SPLINE
  5
10e
100
AcDbEntity
  8
0
 62
7
100
AcDbSpline
 70
8
 71
3
 72
8
 73
4
 74
0
 40
0
 40
0
 40
0
 40
0
 40
1
 40
1
 40
1
 40
1
 10
553.769490
 20
435.417761
 30
0.0
 10
552.553435
 20
436.633814
 30
0.0
 10
550.724588
 20
436.997592
 30
0.0
 10
549.135738
 20
436.339467
 30
0.0
  0
SPLINE
  5
10f
100
AcDbEntity
  8
0
 62
7
100
AcDbSpline
 70
8
 71
3
 72
8
 73
4
 74
0
 40
0
 40
0
 40
0
 40
0
 40
1
 40
1
 40
1
 40
1
 10
549.135738
 20
436.339467
 30
0.0
 10
547.546887
 20
435.681342
 30
0.0
 10
546.510930
 20
434.130921
 30
0.0
 10
546.510930
 20
432.411161
 30
0.0
  0
LWPOLYLINE
  5
110
100
AcDbEntity
  8
0
 62
7
100
AcDbPolyline
 90
2
 70
0
 10
551.456662
 20
536.017361
 30
0.0
 10
546.510930
 20
539.232236
 30
0.0
  0
SPLINE
  5
111
100
AcDbEntity
  8
0
 62
7
100
AcDbSpline
 70
8
 71
3
 72
8
 73
4
 74
0
 40
0
 40
0
 40
0
 40
0
 40
1
 40
1
 40
1
 40
1
 10
545.093602
 20
415.403261
 30
0.0
 10
543.590008
 20
415.403262
 30
0.0
 10
542.147997
 20
416.000566
 30
0.0
 10
541.084799
 20
417.063772
 30
0.0
  0
SPLINE
  5
112
100
AcDbEntity
  8
0
 62
7
100
AcDbSpline
 70
8
 71
3
 72
8
 73
4
 74
0
 40
0
 40
0
 40
0
 40
0
 40
1
 40
1
 40
1
 40
1
 10
541.084799
 20
417.063772
 30
0.0
 10
540.021600
 20
418.126977
 30
0.0
 10
539.424306
 20
419.568992
 30
0.0
 10
539.424315
 20
421.072586
 30
0.0
  0
LWPOLYLINE
  5
113
100
AcDbEntity
  8
0
 62
7
100
AcDbPolyline
 90
4
 70
0
 10
546.510930
 20
432.411161
 30
0.0
 10
546.510930
 20
425.324561
 30
0.0
 10
546.510930
 20
415.403261
 30
0.0
 10
545.093602
 20
415.403261
 30
0.0
  0
SPLINE
  5
114
100
AcDbEntity
  8
0
 62
7
100
AcDbSpline
 70
8
 71
3
 72
8
 73
4
 74
0
 40
0
 40
0
 40
0
 40
0
 40
1
 40
1
 40
1
 40
1
 10
539.424315
 20
425.324561
 30
0.0
 10
539.424315
 20
425.324561
 30
0.0
 10
539.424315
 20
479.624036
 30
0.0
 10
539.424315
 20
479.624036
 30
0.0
  0
SPLINE
  5
115
100
AcDbEntity
  8
0
 62
7
100
AcDbSpline
 70
8
 71
3
 72
8
 73
4
 74
0
 40
0
 40
0
 40
0
 40
0
 40
1
 40
1
 40
1
 40
1
 10
539.424315
 20
479.624036
 30
0.0
 10
539.424320
 20
560.387363
 30
0.0
 10
493.662382
 20
634.176275
 30
0.0
 10
421.314075
 20
670.071086
 30
0.0
  0
SPLINE
  5
116
100
AcDbEntity
  8
0
 62
7
100
AcDbSpline
 70
8
 71
3
 72
8
 73
4
 74
0
 40
0
 40
0
 40
0
 40
0
 40
1
 40
1
 40
1
 40
1
 10
421.314075
 20
670.071086
 30
0.0
 10
343.924976
 20
708.466830
 30
0.0
 10
253.033886
 20
708.466830
 30
0.0
 10
175.644787
 20
670.071086
 30
0.0
  0
SPLINE
  5
117
100
AcDbEntity
  8
0
 62
7
100
AcDbSpline
 70
8
 71
3
 72
8
 73
4
 74
0
 40
0
 40
0
 40
0
 40
0
 40
1
 40
1
 40
1
 40
1
 10
175.644787
 20
670.071086
 30
0.0
 10
103.296481
 20
634.176275
 30
0.0
 10
57.534542
 20
560.387363
 30
0.0
 10
57.534547
 20
479.624036
 30
0.0
  0
LWPOLYLINE
  5
118
100
AcDbEntity
  8
0
 62
7
100
AcDbPolyline
 90
2
 70
0
 10
539.424315
 20
421.072586
 30
0.0
 10
539.424315
 20
425.324561
 30
0.0
  0
SPLINE
  5
119
100
AcDbEntity
  8
0
 62
7
100
AcDbSpline
 70
8
 71
3
 72
8
 73
4
 74
0
 40
0
 40
0
 40
0
 40
0
 40
1
 40
1
 40
1
 40
1
 10
57.534547
 20
425.324561
 30
0.0
 10
57.534547
 20
425.324561
 30
0.0
 10
57.534547
 20
421.072586
 30
0.0
 10
57.534547
 20
421.072586
 30
0.0
  0
SPLINE
  5
11a
100
AcDbEntity
  8
0
 62
7
100
AcDbSpline
 70
8
 71
3
 72
8
 73
4
 74
0
 40
0
 40
0
 40
0
 40
0
 40
1
 40
1
 40
1
 40
1
 10
57.534547
 20
421.072586
 30
0.0
 10
57.534556
 20
419.568992
 30
0.0
 10
56.937262
 20
418.126977
 30
0.0
 10
55.874064
 20
417.063772
 30
0.0
  0
SPLINE
  5
11b
100
AcDbEntity
  8
0
 62
7
100
AcDbSpline
 70
8
 71
3
 72
8
 73
4
 74
0
 40
0
 40
0
 40
0
 40
0
 40
1
 40
1
 40
1
 40
1
 10
55.874064
 20
417.063772
 30
0.0
 10
54.810865
 20
416.000566
 30
0.0
 10
53.368855
 20
415.403262
 30
0.0
 10
51.865260
 20
415.403261
 30
0.0
  0
LWPOLYLINE
  5
11c
100
AcDbEntity
  8
0
 62
7
100
AcDbPolyline
 90
2
 70
0
 10
57.534547
 20
479.624036
 30
0.0
 10
57.534547
 20
425.324561
 30
0.0
  0
SPLINE
  5
11d
100
AcDbEntity
  8
0
 62
7
100
AcDbSpline
 70
8
 71
3
 72
8
 73
4
 74
0
 40
0
 40
0
 40
0
 40
0
 40
1
 40
1
 40
1
 40
1
 10
50.447932
 20
425.324561
 30
0.0
 10
50.447932
 20
425.324561
 30
0.0
 10
50.447932
 20
432.411161
 30
0.0
 10
50.447932
 20
432.411161
 30
0.0
  0
SPLINE
  5
11e
100
AcDbEntity
  8
0
 62
7
100
AcDbSpline
 70
8
 71
3
 72
8
 73
4
 74
0
 40
0
 40
0
 40
0
 40
0
 40
1
 40
1
 40
1
 40
1
 10
50.447932
 20
432.411161
 30
0.0
 10
50.447933
 20
434.130921
 30
0.0
 10
49.411975
 20
435.681342
 30
0.0
 10
47.823125
 20
436.339467
 30
0.0
  0
SPLINE
  5
11f
100
AcDbEntity
  8
0
 62
7
100
AcDbSpline
 70
8
 71
3
 72
8
 73
4
 74
0
 40
0
 40
0
 40
0
 40
0
 40
1
 40
1
 40
1
 40
1
 10
47.823125
 20
436.339467
 30
0.0
 10
46.234274
 20
436.997592
 30
0.0
 10
44.405428
 20
436.633814
 30
0.0
 10
43.189372
 20
435.417761
 30
0.0
  0
SPLINE
  5
120
100
AcDbEntity
  8
0
 62
7
100
AcDbSpline
 70
8
 71
3
 72
8
 73
4
 74
0
 40
0
 40
0
 40
0
 40
0
 40
1
 40
1
 40
1
 40
1
 10
43.189372
 20
435.417761
 30
0.0
 10
42.391972
 20
434.620362
 30
0.0
 10
41.943997
 20
433.538855
 30
0.0
 10
41.943997
 20
432.411161
 30
0.0
  0
SPLINE
  5
121
100
AcDbEntity
  8
0
 62
7
100
AcDbSpline
 70
8
 71
3
 72
8
 73
4
 74
0
 40
0
 40
0
 40
0
 40
0
 40
1
 40
1
 40
1
 40
1
 10
41.943997
 20
432.411161
 30
0.0
 10
41.943997
 20
432.411161
 30
0.0
 10
41.943997
 20
424.615886
 30
0.0
 10
41.943997
 20
424.615886
 30
0.0
  0
SPLINE
  5
122
100
AcDbEntity
  8
0
 62
7
100
AcDbSpline
 70
8
 71
3
 72
8
 73
4
 74
0
 40
0
 40
0
 40
0
 40
0
 40
1
 40
1
 40
1
 40
1
 10
41.943997
 20
424.615886
 30
0.0
 10
41.943974
 20
421.425290
 30
0.0
 10
39.811780
 20
418.628121
 30
0.0
 10
36.735241
 20
417.782655
 30
0.0
  0
SPLINE
  5
123
100
AcDbEntity
  8
0
 62
7
100
AcDbSpline
 70
8
 71
3
 72
8
 73
4
 74
0
 40
0
 40
0
 40
0
 40
0
 40
1
 40
1
 40
1
 40
1
 10
36.735241
 20
417.782655
 30
0.0
 10
33.658702
 20
416.937190
 30
0.0
 10
30.396513
 20
418.251926
 30
0.0
 10
28.766010
 20
420.994436
 30
0.0
  0
SPLINE
  5
124
100
AcDbEntity
  8
0
 62
7
100
AcDbSpline
 70
8
 71
3
 72
8
 73
4
 74
0
 40
0
 40
0
 40
0
 40
0
 40
1
 40
1
 40
1
 40
1
 10
28.766010
 20
420.994436
 30
0.0
 10
28.114600
 20
422.090109
 30
0.0
 10
27.770777
 20
423.341197
 30
0.0
 10
27.770767
 20
424.615886
 30
0.0
  0
SPLINE
  5
125
100
AcDbEntity
  8
0
 62
7
100
AcDbSpline
 70
8
 71
3
 72
8
 73
4
 74
0
 40
0
 40
0
 40
0
 40
0
 40
1
 40
1
 40
1
 40
1
 10
27.770767
 20
424.615886
 30
0.0
 10
27.770767
 20
424.615886
 30
0.0
 10
27.770767
 20
474.222161
 30
0.0
 10
27.770767
 20
474.222161
 30
0.0
  0
SPLINE
  5
126
100
AcDbEntity
  8
0
 62
7
100
AcDbSpline
 70
8
 71
3
 72
8
 73
4
 74
0
 40
0
 40
0
 40
0
 40
0
 40
1
 40
1
 40
1
 40
1
 10
27.770767
 20
474.222161
 30
0.0
 10
27.770764
 20
475.496876
 30
0.0
 10
28.114587
 20
476.747992
 30
0.0
 10
28.766010
 20
477.843686
 30
0.0
  0
SPLINE
  5
127
100
AcDbEntity
  8
0
 62
7
100
AcDbSpline
 70
8
 71
3
 72
8
 73
4
 74
0
 40
0
 40
0
 40
0
 40
0
 40
1
 40
1
 40
1
 40
1
 10
28.766010
 20
477.843686
 30
0.0
 10
30.396521
 20
480.586209
 30
0.0
 10
33.658730
 20
481.900943
 30
0.0
 10
36.735278
 20
481.055457
 30
0.0
  0
SPLINE
  5
128
100
AcDbEntity
  8
0
 62
7
100
AcDbSpline
 70
8
 71
3
 72
8
 73
4
 74
0
 40
0
 40
0
 40
0
 40
0
 40
1
 40
1
 40
1
 40
1
 10
36.735278
 20
481.055457
 30
0.0
 10
39.811826
 20
480.209972
 30
0.0
 10
41.944008
 20
477.412771
 30
0.0
 10
41.943997
 20
474.222161
 30
0.0
  0
SPLINE
  5
129
100
AcDbEntity
  8
0
 62
7
100
AcDbSpline
 70
8
 71
3
 72
8
 73
4
 74
0
 40
0
 40
0
 40
0
 40
0
 40
1
 40
1
 40
1
 40
1
 10
41.943997
 20
474.222161
 30
0.0
 10
41.943997
 20
474.222161
 30
0.0
 10
41.943997
 20
466.426886
 30
0.0
 10
41.943997
 20
466.426886
 30
0.0
  0
SPLINE
  5
12a
100
AcDbEntity
  8
0
 62
7
100
AcDbSpline
 70
8
 71
3
 72
8
 73
4
 74
0
 40
0
 40
0
 40
0
 40
0
 40
1
 40
1
 40
1
 40
1
 10
41.943997
 20
466.426886
 30
0.0
 10
41.944017
 20
465.299218
 30
0.0
 10
42.391990
 20
464.217742
 30
0.0
 10
43.189372
 20
463.420361
 30
0.0
  0
SPLINE
  5
12b
100
AcDbEntity
  8
0
 62
7
100
AcDbSpline
 70
8
 71
3
 72
8
 73
4
 74
0
 40
0
 40
0
 40
0
 40
0
 40
1
 40
1
 40
1
 40
1
 10
43.189372
 20
463.420361
 30
0.0
 10
44.405418
 20
462.204319
 30
0.0
 10
46.234247
 20
461.840536
 30
0.0
 10
47.823090
 20
462.498641
 30
0.0
  0
SPLINE
  5
12c
100
AcDbEntity
  8
0
 62
7
100
AcDbSpline
 70
8
 71
3
 72
8
 73
4
 74
0
 40
0
 40
0
 40
0
 40
0
 40
1
 40
1
 40
1
 40
1
 10
47.823090
 20
462.498641
 30
0.0
 10
49.411934
 20
463.156747
 30
0.0
 10
50.447902
 20
464.707140
 30
0.0
 10
50.447932
 20
466.426886
 30
0.0
  0
LWPOLYLINE
  5
12d
100
AcDbEntity
  8
0
 62
7
100
AcDbPolyline
 90
3
 70
0
 10
51.865260
 20
415.403261
 30
0.0
 10
50.447932
 20
415.403261
 30
0.0
 10
50.447932
 20
425.324561
 30
0.0
  0
SPLINE
  5
12e
100
AcDbEntity
  8
0
 62
7
100
AcDbSpline
 70
8
 71
3
 72
8
 73
4
 74
0
 40
0
 40
0
 40
0
 40
0
 40
1
 40
1
 40
1
 40
1
 10
45.502200
 20
536.017361
 30
0.0
 10
42.221060
 20
533.892423
 30
0.0
 10
37.838922
 20
534.825738
 30
0.0
 10
35.708406
 20
538.103259
 30
0.0
  0
SPLINE
  5
12f
100
AcDbEntity
  8
0
 62
7
100
AcDbSpline
 70
8
 71
3
 72
8
 73
4
 74
0
 40
0
 40
0
 40
0
 40
0
 40
1
 40
1
 40
1
 40
1
 10
35.708406
 20
538.103259
 30
0.0
 10
33.577890
 20
541.380779
 30
0.0
 10
34.503750
 20
545.764499
 30
0.0
 10
37.777642
 20
547.900586
 30
0.0
  0
LWPOLYLINE
  5
130
100
AcDbEntity
  8
0
 62
7
100
AcDbPolyline
 90
3
 70
0
 10
50.447932
 20
466.426886
 30
0.0
 10
50.447932
 20
539.232236
 30
0.0
 10
45.502200
 20
536.017361
 30
0.0
  0
SPLINE
  5
131
100
AcDbEntity
  8
0
 62
7
100
AcDbSpline
 70
8
 71
3
 72
8
 73
4
 74
0
 40
0
 40
0
 40
0
 40
0
 40
1
 40
1
 40
1
 40
1
 10
50.448150
 20
556.111136
 30
0.0
 10
50.448150
 20
556.111136
 30
0.0
 10
50.448150
 20
571.308461
 30
0.0
 10
50.448150
 20
571.308461
 30
0.0
  0
SPLINE
  5
132
100
AcDbEntity
  8
0
 62
7
100
AcDbSpline
 70
8
 71
3
 72
8
 73
4
 74
0
 40
0
 40
0
 40
0
 40
0
 40
1
 40
1
 40
1
 40
1
 10
50.448150
 20
571.308461
 30
0.0
 10
50.448156
 20
616.692028
 30
0.0
 10
62.899994
 20
661.205696
 30
0.0
 10
86.447745
 20
700.002236
 30
0.0
  0
SPLINE
  5
133
100
AcDbEntity
  8
0
 62
7
100
AcDbSpline
 70
8
 71
3
 72
8
 73
4
 74
0
 40
0
 40
0
 40
0
 40
0
 40
1
 40
1
 40
1
 40
1
 10
86.447745
 20
700.002236
 30
0.0
 10
87.030340
 20
700.961935
 30
0.0
 10
86.766293
 20
702.209216
 30
0.0
 10
85.844774
 20
702.850497
 30
0.0
  0
SPLINE
  5
134
100
AcDbEntity
  8
0
 62
7
100
AcDbSpline
 70
8
 71
3
 72
8
 73
4
 74
0
 40
0
 40
0
 40
0
 40
0
 40
1
 40
1
 40
1
 40
1
 10
85.844774
 20
702.850497
 30
0.0
 10
84.923256
 20
703.491779
 30
0.0
 10
83.661942
 20
703.305991
 30
0.0
 10
82.964467
 20
702.426236
 30
0.0
  0
SPLINE
  5
135
100
AcDbEntity
  8
0
 62
7
100
AcDbSpline
 70
8
 71
3
 72
8
 73
4
 74
0
 40
0
 40
0
 40
0
 40
0
 40
1
 40
1
 40
1
 40
1
 10
82.964467
 20
702.426236
 30
0.0
 10
65.283368
 20
680.127288
 30
0.0
 10
51.170093
 20
655.219371
 30
0.0
 10
41.128508
 20
628.591736
 30
0.0
  0
SPLINE
  5
136
100
AcDbEntity
  8
0
 62
7
100
AcDbSpline
 70
8
 71
3
 72
8
 73
4
 74
0
 40
0
 40
0
 40
0
 40
0
 40
1
 40
1
 40
1
 40
1
 10
41.128508
 20
628.591736
 30
0.0
 10
41.128508
 20
628.591736
 30
0.0
 10
31.794532
 20
631.954511
 30
0.0
 10
31.794532
 20
631.954511
 30
0.0
  0
SPLINE
  5
137
100
AcDbEntity
  8
0
 62
7
100
AcDbSpline
 70
8
 71
3
 72
8
 73
4
 74
0
 40
0
 40
0
 40
0
 40
0
 40
1
 40
1
 40
1
 40
1
 10
31.794532
 20
631.954511
 30
0.0
 10
32.915712
 20
635.066574
 30
0.0
 10
34.091280
 20
638.158772
 30
0.0
 10
35.320695
 20
641.229686
 30
0.0
  0
SPLINE
  5
138
100
AcDbEntity
  8
0
 62
7
100
AcDbSpline
 70
8
 71
3
 72
8
 73
4
 74
0
 40
0
 40
0
 40
0
 40
0
 40
1
 40
1
 40
1
 40
1
 10
35.320695
 20
641.229686
 30
0.0
 10
37.475645
 20
646.612396
 30
0.0
 10
39.795236
 20
651.927721
 30
0.0
 10
42.276195
 20
657.168161
 30
0.0
  0
SPLINE
  5
139
100
AcDbEntity
  8
0
 62
7
100
AcDbSpline
 70
8
 71
3
 72
8
 73
4
 74
0
 40
0
 40
0
 40
0
 40
0
 40
1
 40
1
 40
1
 40
1
 10
42.276195
 20
657.168161
 30
0.0
 10
42.276195
 20
657.168161
 30
0.0
 10
35.199457
 20
656.794211
 30
0.0
 10
35.199457
 20
656.794211
 30
0.0
  0
SPLINE
  5
13a
100
AcDbEntity
  8
0
 62
7
100
AcDbSpline
 70
8
 71
3
 72
8
 73
4
 74
0
 40
0
 40
0
 40
0
 40
0
 40
1
 40
1
 40
1
 40
1
 10
35.199457
 20
656.794211
 30
0.0
 10
32.671183
 20
656.660588
 30
0.0
 10
30.263673
 20
657.885933
 30
0.0
 10
28.883814
 20
660.008671
 30
0.0
  0
SPLINE
  5
13b
100
AcDbEntity
  8
0
 62
7
100
AcDbSpline
 70
8
 71
3
 72
8
 73
4
 74
0
 40
0
 40
0
 40
0
 40
0
 40
1
 40
1
 40
1
 40
1
 10
28.883814
 20
660.008671
 30
0.0
 10
27.503955
 20
662.131410
 30
0.0
 10
27.361381
 20
664.829047
 30
0.0
 10
28.509797
 20
667.085409
 30
0.0
  0
SPLINE
  5
13c
100
AcDbEntity
  8
0
 62
7
100
AcDbSpline
 70
8
 71
3
 72
8
 73
4
 74
0
 40
0
 40
0
 40
0
 40
0
 40
1
 40
1
 40
1
 40
1
 10
28.509797
 20
667.085409
 30
0.0
 10
29.658213
 20
669.341771
 30
0.0
 10
31.923148
 20
670.814063
 30
0.0
 10
34.451423
 20
670.947686
 30
0.0
  0
SPLINE
  5
13d
100
AcDbEntity
  8
0
 62
7
100
AcDbSpline
 70
8
 71
3
 72
8
 73
4
 74
0
 40
0
 40
0
 40
0
 40
0
 40
1
 40
1
 40
1
 40
1
 10
34.451423
 20
670.947686
 30
0.0
 10
34.451423
 20
670.947686
 30
0.0
 10
49.704217
 20
671.753786
 30
0.0
 10
49.704218
 20
671.753786
 30
0.0
  0
SPLINE
  5
13e
100
AcDbEntity
  8
0
 62
7
100
AcDbSpline
 70
8
 71
3
 72
8
 73
4
 74
0
 40
0
 40
0
 40
0
 40
0
 40
1
 40
1
 40
1
 40
1
 10
49.704218
 20
671.753786
 30
0.0
 10
83.824499
 20
734.223515
 30
0.0
 10
140.198411
 20
781.570038
 30
0.0
 10
207.623527
 20
804.384821
 30
0.0
  0
SPLINE
  5
13f
100
AcDbEntity
  8
0
 62
7
100
AcDbSpline
 70
8
 71
3
 72
8
 73
4
 74
0
 40
0
 40
0
 40
0
 40
0
 40
1
 40
1
 40
1
 40
1
 10
207.623527
 20
804.384821
 30
0.0
 10
207.623527
 20
804.384821
 30
0.0
 10
207.623527
 20
815.857369
 30
0.0
 10
207.623528
 20
815.857369
 30
0.0
  0
SPLINE
  5
140
100
AcDbEntity
  8
0
 62
7
100
AcDbSpline
 70
8
 71
3
 72
8
 73
4
 74
0
 40
0
 40
0
 40
0
 40
0
 40
1
 40
1
 40
1
 40
1
 10
207.623528
 20
815.857369
 30
0.0
 10
207.623528
 20
818.389172
 30
0.0
 10
208.974229
 20
820.728655
 30
0.0
 10
211.166835
 20
821.994557
 30
0.0
  0
SPLINE
  5
141
100
AcDbEntity
  8
0
 62
7
100
AcDbSpline
 70
8
 71
3
 72
8
 73
4
 74
0
 40
0
 40
0
 40
0
 40
0
 40
1
 40
1
 40
1
 40
1
 10
211.166835
 20
821.994557
 30
0.0
 10
213.359441
 20
823.260458
 30
0.0
 10
216.060844
 20
823.260458
 30
0.0
 10
218.253450
 20
821.994557
 30
0.0
  0
SPLINE
  5
142
100
AcDbEntity
  8
0
 62
7
100
AcDbSpline
 70
8
 71
3
 72
8
 73
4
 74
0
 40
0
 40
0
 40
0
 40
0
 40
1
 40
1
 40
1
 40
1
 10
218.253450
 20
821.994557
 30
0.0
 10
220.446056
 20
820.728655
 30
0.0
 10
221.796757
 20
818.389172
 30
0.0
 10
221.796757
 20
815.857369
 30
0.0
  0
SPLINE
  5
143
100
AcDbEntity
  8
0
 62
7
100
AcDbSpline
 70
8
 71
3
 72
8
 73
4
 74
0
 40
0
 40
0
 40
0
 40
0
 40
1
 40
1
 40
1
 40
1
 10
221.796757
 20
815.857369
 30
0.0
 10
221.796757
 20
815.857369
 30
0.0
 10
221.796757
 20
808.770754
 30
0.0
 10
221.796757
 20
808.770754
 30
0.0
  0
SPLINE
  5
144
100
AcDbEntity
  8
0
 62
7
100
AcDbSpline
 70
8
 71
3
 72
8
 73
4
 74
0
 40
0
 40
0
 40
0
 40
0
 40
1
 40
1
 40
1
 40
1
 10
221.796757
 20
808.770754
 30
0.0
 10
271.947522
 20
822.862987
 30
0.0
 10
325.011778
 20
822.862987
 30
0.0
 10
375.162542
 20
808.770754
 30
0.0
  0
LWPOLYLINE
  5
145
100
AcDbEntity
  8
0
 62
7
100
AcDbPolyline
 90
3
 70
0
 10
37.777642
 20
547.900586
 30
0.0
 10
50.446650
 20
556.135886
 30
0.0
 10
50.448150
 20
556.111136
 30
0.0
  0
SPLINE
  5
146
100
AcDbEntity
  8
0
 62
7
100
AcDbSpline
 70
8
 71
3
 72
8
 73
4
 74
0
 40
0
 40
0
 40
0
 40
0
 40
1
 40
1
 40
1
 40
1
 10
375.162542
 20
815.857369
 30
0.0
 10
375.162542
 20
819.771198
 30
0.0
 10
378.335328
 20
822.943983
 30
0.0
 10
382.249156
 20
822.943983
 30
0.0
  0
SPLINE
  5
147
100
AcDbEntity
  8
0
 62
7
100
AcDbSpline
 70
8
 71
3
 72
8
 73
4
 74
0
 40
0
 40
0
 40
0
 40
0
 40
1
 40
1
 40
1
 40
1
 10
382.249156
 20
822.943983
 30
0.0
 10
386.162985
 20
822.943983
 30
0.0
 10
389.335771
 20
819.771198
 30
0.0
 10
389.335771
 20
815.857369
 30
0.0
  0
LWPOLYLINE
  5
148
100
AcDbEntity
  8
0
 62
7
100
AcDbPolyline
 90
2
 70
0
 10
375.162542
 20
808.770754
 30
0.0
 10
375.162542
 20
815.857369
 30
0.0
  0
SPLINE
  5
149
100
AcDbEntity
  8
0
 62
7
100
AcDbSpline
 70
8
 71
3
 72
8
 73
4
 74
0
 40
0
 40
0
 40
0
 40
0
 40
1
 40
1
 40
1
 40
1
 10
389.335771
 20
804.384821
 30
0.0
 10
456.760743
 20
781.570083
 30
0.0
 10
513.134560
 20
734.223707
 30
0.0
 10
547.254862
 20
671.754161
 30
0.0
  0
SPLINE
  5
14a
100
AcDbEntity
  8
0
 62
7
100
AcDbSpline
 70
8
 71
3
 72
8
 73
4
 74
0
 40
0
 40
0
 40
0
 40
0
 40
1
 40
1
 40
1
 40
1
 10
547.254862
 20
671.754161
 30
0.0
 10
547.254862
 20
671.754161
 30
0.0
 10
562.507658
 20
670.948061
 30
0.0
 10
562.507657
 20
670.948061
 30
0.0
  0
SPLINE
  5
14b
100
AcDbEntity
  8
0
 62
7
100
AcDbSpline
 70
8
 71
3
 72
8
 73
4
 74
0
 40
0
 40
0
 40
0
 40
0
 40
1
 40
1
 40
1
 40
1
 10
562.507657
 20
670.948061
 30
0.0
 10
565.035932
 20
670.814438
 30
0.0
 10
567.300867
 20
669.342146
 30
0.0
 10
568.449283
 20
667.085784
 30
0.0
  0
SPLINE
  5
14c
100
AcDbEntity
  8
0
 62
7
100
AcDbSpline
 70
8
 71
3
 72
8
 73
4
 74
0
 40
0
 40
0
 40
0
 40
0
 40
1
 40
1
 40
1
 40
1
 10
568.449283
 20
667.085784
 30
0.0
 10
569.597699
 20
664.829422
 30
0.0
 10
569.455125
 20
662.131785
 30
0.0
 10
568.075266
 20
660.009046
 30
0.0
  0
SPLINE
  5
14d
100
AcDbEntity
  8
0
 62
7
100
AcDbSpline
 70
8
 71
3
 72
8
 73
4
 74
0
 40
0
 40
0
 40
0
 40
0
 40
1
 40
1
 40
1
 40
1
 10
568.075266
 20
660.009046
 30
0.0
 10
566.695407
 20
657.886308
 30
0.0
 10
564.287897
 20
656.660963
 30
0.0
 10
561.759623
 20
656.794586
 30
0.0
  0
SPLINE
  5
14e
100
AcDbEntity
  8
0
 62
7
100
AcDbSpline
 70
8
 71
3
 72
8
 73
4
 74
0
 40
0
 40
0
 40
0
 40
0
 40
1
 40
1
 40
1
 40
1
 10
561.759623
 20
656.794586
 30
0.0
 10
561.759623
 20
656.794586
 30
0.0
 10
554.682885
 20
657.168536
 30
0.0
 10
554.682885
 20
657.168536
 30
0.0
  0
SPLINE
  5
14f
100
AcDbEntity
  8
0
 62
7
100
AcDbSpline
 70
8
 71
3
 72
8
 73
4
 74
0
 40
0
 40
0
 40
0
 40
0
 40
1
 40
1
 40
1
 40
1
 10
554.682885
 20
657.168536
 30
0.0
 10
556.961503
 20
652.355480
 30
0.0
 10
559.104041
 20
647.479169
 30
0.0
 10
561.107947
 20
642.545411
 30
0.0
  0
SPLINE
  5
150
100
AcDbEntity
  8
0
 62
7
100
AcDbSpline
 70
8
 71
3
 72
8
 73
4
 74
0
 40
0
 40
0
 40
0
 40
0
 40
1
 40
1
 40
1
 40
1
 10
561.107947
 20
642.545411
 30
0.0
 10
562.530637
 20
639.042642
 30
0.0
 10
563.883108
 20
635.511760
 30
0.0
 10
565.164548
 20
631.954886
 30
0.0
  0
LWPOLYLINE
  5
151
100
AcDbEntity
  8
0
 62
7
100
AcDbPolyline
 90
2
 70
0
 10
389.335771
 20
815.857369
 30
0.0
 10
389.335771
 20
804.384821
 30
0.0
  0
SPLINE
  5
152
100
AcDbEntity
  8
0
 62
7
100
AcDbSpline
 70
8
 71
3
 72
8
 73
4
 74
0
 40
0
 40
0
 40
0
 40
0
 40
1
 40
1
 40
1
 40
1
 10
555.830573
 20
628.592111
 30
0.0
 10
545.788987
 20
655.219746
 30
0.0
 10
531.675712
 20
680.127663
 30
0.0
 10
513.994613
 20
702.426611
 30
0.0
  0
SPLINE
  5
153
100
AcDbEntity
  8
0
 62
7
100
AcDbSpline
 70
8
 71
3
 72
8
 73
4
 74
0
 40
0
 40
0
 40
0
 40
0
 40
1
 40
1
 40
1
 40
1
 10
513.994613
 20
702.426611
 30
0.0
 10
513.297138
 20
703.306366
 30
0.0
 10
512.035824
 20
703.492154
 30
0.0
 10
511.114306
 20
702.850872
 30
0.0
  0
SPLINE
  5
154
100
AcDbEntity
  8
0
 62
7
100
AcDbSpline
 70
8
 71
3
 72
8
 73
4
 74
0
 40
0
 40
0
 40
0
 40
0
 40
1
 40
1
 40
1
 40
1
 10
511.114306
 20
702.850872
 30
0.0
 10
510.192787
 20
702.209591
 30
0.0
 10
509.928740
 20
700.962310
 30
0.0
 10
510.511335
 20
700.002611
 30
0.0
  0
SPLINE
  5
155
100
AcDbEntity
  8
0
 62
7
100
AcDbSpline
 70
8
 71
3
 72
8
 73
4
 74
0
 40
0
 40
0
 40
0
 40
0
 40
1
 40
1
 40
1
 40
1
 10
510.511335
 20
700.002611
 30
0.0
 10
534.059086
 20
661.206071
 30
0.0
 10
546.510924
 20
616.692403
 30
0.0
 10
546.510930
 20
571.308836
 30
0.0
  0
LWPOLYLINE
  5
156
100
AcDbEntity
  8
0
 62
7
100
AcDbPolyline
 90
2
 70
0
 10
565.164548
 20
631.954886
 30
0.0
 10
555.830573
 20
628.592111
 30
0.0
  0
SPLINE
  5
157
100
AcDbEntity
  8
0
 62
7
100
AcDbSpline
 70
8
 71
3
 72
8
 73
4
 74
0
 40
0
 40
0
 40
0
 40
0
 40
1
 40
1
 40
1
 40
1
 10
546.512430
 20
556.136261
 30
0.0
 10
546.512430
 20
556.136261
 30
0.0
 10
559.181438
 20
547.900961
 30
0.0
 10
559.181437
 20
547.900961
 30
0.0
  0
SPLINE
  5
158
100
AcDbEntity
  8
0
 62
7
100
AcDbSpline
 70
8
 71
3
 72
8
 73
4
 74
0
 40
0
 40
0
 40
0
 40
0
 40
1
 40
1
 40
1
 40
1
 10
559.181437
 20
547.900961
 30
0.0
 10
562.455302
 20
545.764863
 30
0.0
 10
563.381143
 20
541.381164
 30
0.0
 10
561.250637
 20
538.103658
 30
0.0
  0
SPLINE
  5
159
100
AcDbEntity
  8
0
 62
7
100
AcDbSpline
 70
8
 71
3
 72
8
 73
4
 74
0
 40
0
 40
0
 40
0
 40
0
 40
1
 40
1
 40
1
 40
1
 10
561.250637
 20
538.103658
 30
0.0
 10
559.120131
 20
534.826151
 30
0.0
 10
554.738019
 20
533.892828
 30
0.0
 10
551.456880
 20
536.017736
 30
0.0
  0
LWPOLYLINE
  5
15a
100
AcDbEntity
  8
0
 62
7
100
AcDbPolyline
 90
3
 70
0
 10
546.510930
 20
571.308836
 30
0.0
 10
546.510930
 20
556.111511
 30
0.0
 10
546.512430
 20
556.136261
 30
0.0
  0
SPLINE
  5
15b
100
AcDbEntity
  8
0
 62
7
100
AcDbSpline
 70
8
 71
3
 72
8
 73
4
 74
0
 40
0
 40
0
 40
0
 40
0
 40
1
 40
1
 40
1
 40
1
 10
426.353445
 20
680.228261
 30
0.0
 10
345.789409
 20
720.199215
 30
0.0
 10
251.169454
 20
720.199215
 30
0.0
 10
170.605418
 20
680.228261
 30
0.0
  0
SPLINE
  5
15c
100
AcDbEntity
  8
0
 62
7
100
AcDbSpline
 70
8
 71
3
 72
8
 73
4
 74
0
 40
0
 40
0
 40
0
 40
0
 40
1
 40
1
 40
1
 40
1
 10
170.605418
 20
680.228261
 30
0.0
 10
122.072407
 20
656.149139
 30
0.0
 10
83.914466
 20
615.291669
 30
0.0
 10
63.203843
 20
565.228436
 30
0.0
  0
SPLINE
  5
15d
100
AcDbEntity
  8
0
 62
7
100
AcDbSpline
 70
8
 71
3
 72
8
 73
4
 74
0
 40
0
 40
0
 40
0
 40
0
 40
1
 40
1
 40
1
 40
1
 10
63.203843
 20
565.228436
 30
0.0
 10
63.203843
 20
565.228436
 30
0.0
 10
63.203843
 20
571.308836
 30
0.0
 10
63.203843
 20
571.308836
 30
0.0
  0
SPLINE
  5
15e
100
AcDbEntity
  8
0
 62
7
100
AcDbSpline
 70
8
 71
3
 72
8
 73
4
 74
0
 40
0
 40
0
 40
0
 40
0
 40
1
 40
1
 40
1
 40
1
 10
63.203843
 20
571.308836
 30
0.0
 10
63.227039
 20
701.231552
 30
0.0
 10
168.556714
 20
806.542422
 30
0.0
 10
298.479431
 20
806.542422
 30
0.0
  0
SPLINE
  5
15f
100
AcDbEntity
  8
0
 62
7
100
AcDbSpline
 70
8
 71
3
 72
8
 73
4
 74
0
 40
0
 40
0
 40
0
 40
0
 40
1
 40
1
 40
1
 40
1
 10
298.479431
 20
806.542422
 30
0.0
 10
428.402149
 20
806.542422
 30
0.0
 10
533.731823
 20
701.231552
 30
0.0
 10
533.755020
 20
571.308836
 30
0.0
  0
SPLINE
  5
160
100
AcDbEntity
  8
0
 62
7
100
AcDbSpline
 70
8
 71
3
 72
8
 73
4
 74
0
 40
0
 40
0
 40
0
 40
0
 40
1
 40
1
 40
1
 40
1
 10
533.755020
 20
571.308836
 30
0.0
 10
533.755020
 20
571.308836
 30
0.0
 10
533.755020
 20
565.228436
 30
0.0
 10
533.755020
 20
565.228436
 30
0.0
  0
SPLINE
  5
161
100
AcDbEntity
  8
0
 62
7
100
AcDbSpline
 70
8
 71
3
 72
8
 73
4
 74
0
 40
0
 40
0
 40
0
 40
0
 40
1
 40
1
 40
1
 40
1
 10
533.755020
 20
565.228436
 30
0.0
 10
513.044397
 20
615.291669
 30
0.0
 10
474.886455
 20
656.149139
 30
0.0
 10
426.353445
 20
680.228261
 30
0.0
  0
LWPOLYLINE
  5
162
100
AcDbEntity
  8
0
 62
7
100
AcDbPolyline
 90
2
 70
0
 10
551.456880
 20
536.017736
 30
0.0
 10
551.456662
 20
536.017361
 30
0.0
  0
LWPOLYLINE
  5
163
100
AcDbEntity
  8
0
 62
7
100
AcDbPolyline
 90
1
 70
1
 10
426.353445
 20
680.228261
 30
0.0
  0
SPLINE
  5
164
100
AcDbEntity
  8
0
 62
7
100
AcDbSpline
 70
8
 71
3
 72
8
 73
4
 74
0
 40
0
 40
0
 40
0
 40
0
 40
1
 40
1
 40
1
 40
1
 10
183.504600
 20
737.590631
 30
0.0
 10
182.558023
 20
739.986064
 30
0.0
 10
180.386971
 20
741.679863
 30
0.0
 10
177.833230
 20
742.015289
 30
0.0
  0
SPLINE
  5
165
100
AcDbEntity
  8
0
 62
7
100
AcDbSpline
 70
8
 71
3
 72
8
 73
4
 74
0
 40
0
 40
0
 40
0
 40
0
 40
1
 40
1
 40
1
 40
1
 10
177.833230
 20
742.015289
 30
0.0
 10
175.279489
 20
742.350714
 30
0.0
 10
172.744672
 20
741.275016
 30
0.0
 10
171.211609
 20
739.205276
 30
0.0
  0
SPLINE
  5
166
100
AcDbEntity
  8
0
 62
7
100
AcDbSpline
 70
8
 71
3
 72
8
 73
4
 74
0
 40
0
 40
0
 40
0
 40
0
 40
1
 40
1
 40
1
 40
1
 10
171.211609
 20
739.205276
 30
0.0
 10
169.678546
 20
737.135536
 30
0.0
 10
169.388334
 20
734.397252
 30
0.0
 10
170.453497
 20
732.052144
 30
0.0
  0
SPLINE
  5
167
100
AcDbEntity
  8
0
 62
7
100
AcDbSpline
 70
8
 71
3
 72
8
 73
4
 74
0
 40
0
 40
0
 40
0
 40
0
 40
1
 40
1
 40
1
 40
1
 10
176.314808
 20
719.147666
 30
0.0
 10
167.946612
 20
715.346780
 30
0.0
 10
159.768226
 20
711.141151
 30
0.0
 10
151.808633
 20
706.545686
 30
0.0
  0
SPLINE
  5
168
100
AcDbEntity
  8
0
 62
7
100
AcDbSpline
 70
8
 71
3
 72
8
 73
4
 74
0
 40
0
 40
0
 40
0
 40
0
 40
1
 40
1
 40
1
 40
1
 10
428.186598
 20
694.271280
 30
0.0
 10
431.576077
 20
692.314371
 30
0.0
 10
435.910180
 20
693.475698
 30
0.0
 10
437.867089
 20
696.865177
 30
0.0
  0
SPLINE
  5
169
100
AcDbEntity
  8
0
 62
7
100
AcDbSpline
 70
8
 71
3
 72
8
 73
4
 74
0
 40
0
 40
0
 40
0
 40
0
 40
1
 40
1
 40
1
 40
1
 10
437.867089
 20
696.865177
 30
0.0
 10
439.823998
 20
700.254656
 30
0.0
 10
438.662670
 20
704.588759
 30
0.0
 10
435.273192
 20
706.545668
 30
0.0
  0
LWPOLYLINE
  5
16a
100
AcDbEntity
  8
0
 62
7
100
AcDbPolyline
 90
2
 70
0
 10
176.314808
 20
719.147666
 30
0.0
 10
170.453497
 20
732.052144
 30
0.0
  0
SPLINE
  5
16b
100
AcDbEntity
  8
0
 62
7
100
AcDbSpline
 70
8
 71
3
 72
8
 73
4
 74
0
 40
0
 40
0
 40
0
 40
0
 40
1
 40
1
 40
1
 40
1
 10
151.808643
 20
706.545668
 30
0.0
 10
149.616035
 20
705.279770
 30
0.0
 10
148.265330
 20
702.940289
 30
0.0
 10
148.265326
 20
700.408486
 30
0.0
  0
SPLINE
  5
16c
100
AcDbEntity
  8
0
 62
7
100
AcDbSpline
 70
8
 71
3
 72
8
 73
4
 74
0
 40
0
 40
0
 40
0
 40
0
 40
1
 40
1
 40
1
 40
1
 10
148.265326
 20
700.408486
 30
0.0
 10
148.265321
 20
697.876682
 30
0.0
 10
149.616019
 20
695.537197
 30
0.0
 10
151.808623
 20
694.271292
 30
0.0
  0
SPLINE
  5
16d
100
AcDbEntity
  8
0
 62
7
100
AcDbSpline
 70
8
 71
3
 72
8
 73
4
 74
0
 40
0
 40
0
 40
0
 40
0
 40
1
 40
1
 40
1
 40
1
 10
151.808623
 20
694.271292
 30
0.0
 10
154.001226
 20
693.005386
 30
0.0
 10
156.702629
 20
693.005382
 30
0.0
 10
158.895237
 20
694.271280
 30
0.0
  0
SPLINE
  5
16e
100
AcDbEntity
  8
0
 62
7
100
AcDbSpline
 70
8
 71
3
 72
8
 73
4
 74
0
 40
0
 40
0
 40
0
 40
0
 40
1
 40
1
 40
1
 40
1
 10
428.186588
 20
694.271261
 30
0.0
 10
344.867557
 20
742.375526
 30
0.0
 10
242.214278
 20
742.375526
 30
0.0
 10
158.895247
 20
694.271261
 30
0.0
  0
SPLINE
  5
16f
100
AcDbEntity
  8
0
 62
7
100
AcDbSpline
 70
8
 71
3
 72
8
 73
4
 74
0
 40
0
 40
0
 40
0
 40
0
 40
1
 40
1
 40
1
 40
1
 10
435.273202
 20
706.545686
 30
0.0
 10
427.313609
 20
711.141151
 30
0.0
 10
419.135223
 20
715.346780
 30
0.0
 10
410.767027
 20
719.147666
 30
0.0
  0
SPLINE
  5
170
100
AcDbEntity
  8
0
 62
7
100
AcDbSpline
 70
8
 71
3
 72
8
 73
4
 74
0
 40
0
 40
0
 40
0
 40
0
 40
1
 40
1
 40
1
 40
1
 10
397.715925
 20
724.686161
 30
0.0
 10
330.784047
 20
751.134901
 30
0.0
 10
256.297788
 20
751.134901
 30
0.0
 10
189.365910
 20
724.686161
 30
0.0
  0
SPLINE
  5
171
100
AcDbEntity
  8
0
 62
7
100
AcDbSpline
 70
8
 71
3
 72
8
 73
4
 74
0
 40
0
 40
0
 40
0
 40
0
 40
1
 40
1
 40
1
 40
1
 10
416.628330
 20
732.052144
 30
0.0
 10
417.693553
 20
734.397261
 30
0.0
 10
417.403373
 20
737.135588
 30
0.0
 10
415.870304
 20
739.205365
 30
0.0
  0
SPLINE
  5
172
100
AcDbEntity
  8
0
 62
7
100
AcDbSpline
 70
8
 71
3
 72
8
 73
4
 74
0
 40
0
 40
0
 40
0
 40
0
 40
1
 40
1
 40
1
 40
1
 10
415.870304
 20
739.205365
 30
0.0
 10
414.337236
 20
741.275141
 30
0.0
 10
411.802383
 20
742.350856
 30
0.0
 10
409.248611
 20
742.015410
 30
0.0
  0
SPLINE
  5
173
100
AcDbEntity
  8
0
 62
7
100
AcDbSpline
 70
8
 71
3
 72
8
 73
4
 74
0
 40
0
 40
0
 40
0
 40
0
 40
1
 40
1
 40
1
 40
1
 10
409.248611
 20
742.015410
 30
0.0
 10
406.694839
 20
741.679964
 30
0.0
 10
404.523778
 20
739.986113
 30
0.0
 10
403.577235
 20
737.590631
 30
0.0
  0
LWPOLYLINE
  5
174
100
AcDbEntity
  8
0
 62
7
100
AcDbPolyline
 90
2
 70
0
 10
397.715925
 20
724.686161
 30
0.0
 10
403.577235
 20
737.590631
 30
0.0
  0
LWPOLYLINE
  5
175
100
AcDbEntity
  8
0
 62
7
100
AcDbPolyline
 90
2
 70
0
 10
410.767027
 20
719.147666
 30
0.0
 10
416.628330
 20
732.052144
 30
0.0
  0
SPLINE
  5
176
100
AcDbEntity
  8
0
 62
1
100
AcDbSpline
 70
8
 71
3
 72
8
 73
4
 74
0
 40
0
 40
0
 40
0
 40
0
 40
1
 40
1
 40
1
 40
1
 10
38.401865
 20
449.669366
 30
0.0
 10
38.401865
 20
449.539391
 30
0.0
 10
38.456372
 20
449.439452
 30
0.0
 10
38.565136
 20
449.369601
 30
0.0
  0
SPLINE
  5
177
100
AcDbEntity
  8
0
 62
1
100
AcDbSpline
 70
8
 71
3
 72
8
 73
4
 74
0
 40
0
 40
0
 40
0
 40
0
 40
1
 40
1
 40
1
 40
1
 10
38.565136
 20
449.369601
 30
0.0
 10
38.615532
 20
449.335402
 30
0.0
 10
38.732570
 20
449.318403
 30
0.0
 10
38.916150
 20
449.318403
 30
0.0
  0
LWPOLYLINE
  5
178
100
AcDbEntity
  8
0
 62
7
100
AcDbPolyline
 90
2
 70
0
 10
189.365910
 20
724.686161
 30
0.0
 10
183.504600
 20
737.590631
 30
0.0
  0
SPLINE
  5
179
100
AcDbEntity
  8
0
 62
1
100
AcDbSpline
 70
8
 71
3
 72
8
 73
4
 74
0
 40
0
 40
0
 40
0
 40
0
 40
1
 40
1
 40
1
 40
1
 10
40.256819
 20
449.318403
 30
0.0
 10
40.588376
 20
449.318403
 30
0.0
 10
40.845418
 20
449.285508
 30
0.0
 10
41.028346
 20
449.219668
 30
0.0
  0
SPLINE
  5
17a
100
AcDbEntity
  8
0
 62
1
100
AcDbSpline
 70
8
 71
3
 72
8
 73
4
 74
0
 40
0
 40
0
 40
0
 40
0
 40
1
 40
1
 40
1
 40
1
 10
41.028346
 20
449.219668
 30
0.0
 10
41.211074
 20
449.153828
 30
0.0
 10
41.367977
 20
449.024655
 30
0.0
 10
41.498754
 20
448.832049
 30
0.0
  0
SPLINE
  5
17b
100
AcDbEntity
  8
0
 62
1
100
AcDbSpline
 70
8
 71
3
 72
8
 73
4
 74
0
 40
0
 40
0
 40
0
 40
0
 40
1
 40
1
 40
1
 40
1
 10
41.498754
 20
448.832049
 30
0.0
 10
41.629481
 20
448.639493
 30
0.0
 10
41.695021
 20
448.377487
 30
0.0
 10
41.695021
 20
448.045980
 30
0.0
  0
SPLINE
  5
17c
100
AcDbEntity
  8
0
 62
1
100
AcDbSpline
 70
8
 71
3
 72
8
 73
4
 74
0
 40
0
 40
0
 40
0
 40
0
 40
1
 40
1
 40
1
 40
1
 10
41.695021
 20
448.045980
 30
0.0
 10
41.695021
 20
447.685189
 30
0.0
 10
41.632390
 20
447.411398
 30
0.0
 10
41.507329
 20
447.224559
 30
0.0
  0
SPLINE
  5
17d
100
AcDbEntity
  8
0
 62
1
100
AcDbSpline
 70
8
 71
3
 72
8
 73
4
 74
0
 40
0
 40
0
 40
0
 40
0
 40
1
 40
1
 40
1
 40
1
 10
41.507329
 20
447.224559
 30
0.0
 10
41.382168
 20
447.037670
 30
0.0
 10
41.213982
 20
446.905187
 30
0.0
 10
41.002672
 20
446.827212
 30
0.0
  0
SPLINE
  5
17e
100
AcDbEntity
  8
0
 62
1
100
AcDbSpline
 70
8
 71
3
 72
8
 73
4
 74
0
 40
0
 40
0
 40
0
 40
0
 40
1
 40
1
 40
1
 40
1
 10
41.002672
 20
446.827212
 30
0.0
 10
40.858105
 20
446.775212
 30
0.0
 10
40.586722
 20
446.749187
 30
0.0
 10
40.188522
 20
446.749187
 30
0.0
  0
LWPOLYLINE
  5
17f
100
AcDbEntity
  8
0
 62
1
100
AcDbPolyline
 90
5
 70
0
 10
38.401865
 20
448.623698
 30
0.0
 10
38.311655
 20
448.623698
 30
0.0
 10
38.311655
 20
449.793725
 30
0.0
 10
38.401865
 20
449.793725
 30
0.0
 10
38.401865
 20
449.669366
 30
0.0
  0
SPLINE
  5
180
100
AcDbEntity
  8
0
 62
1
100
AcDbSpline
 70
8
 71
3
 72
8
 73
4
 74
0
 40
0
 40
0
 40
0
 40
0
 40
1
 40
1
 40
1
 40
1
 10
38.896643
 20
446.749187
 30
0.0
 10
38.693607
 20
446.749187
 30
0.0
 10
38.560272
 20
446.721206
 30
0.0
 10
38.496940
 20
446.665094
 30
0.0
  0
SPLINE
  5
181
100
AcDbEntity
  8
0
 62
1
100
AcDbSpline
 70
8
 71
3
 72
8
 73
4
 74
0
 40
0
 40
0
 40
0
 40
0
 40
1
 40
1
 40
1
 40
1
 10
38.496940
 20
446.665094
 30
0.0
 10
38.433507
 20
446.609032
 30
0.0
 10
38.401865
 20
446.518471
 30
0.0
 10
38.401865
 20
446.393310
 30
0.0
  0
LWPOLYLINE
  5
182
100
AcDbEntity
  8
0
 62
1
100
AcDbPolyline
 90
2
 70
0
 10
38.916150
 20
449.318403
 30
0.0
 10
40.256819
 20
449.318403
 30
0.0
  0
SPLINE
  5
183
100
AcDbEntity
  8
0
 62
1
100
AcDbSpline
 70
8
 71
3
 72
8
 73
4
 74
0
 40
0
 40
0
 40
0
 40
0
 40
1
 40
1
 40
1
 40
1
 10
38.401865
 20
447.570658
 30
0.0
 10
38.401865
 20
447.434164
 30
0.0
 10
38.444889
 20
447.336683
 30
0.0
 10
38.530988
 20
447.278164
 30
0.0
  0
SPLINE
  5
184
100
AcDbEntity
  8
0
 62
1
100
AcDbSpline
 70
8
 71
3
 72
8
 73
4
 74
0
 40
0
 40
0
 40
0
 40
0
 40
1
 40
1
 40
1
 40
1
 10
38.530988
 20
447.278164
 30
0.0
 10
38.589557
 20
447.237496
 30
0.0
 10
38.711409
 20
447.217188
 30
0.0
 10
38.896643
 20
447.217188
 30
0.0
  0
LWPOLYLINE
  5
185
100
AcDbEntity
  8
0
 62
1
100
AcDbPolyline
 90
2
 70
0
 10
40.188522
 20
446.749187
 30
0.0
 10
38.896643
 20
446.749187
 30
0.0
  0
SPLINE
  5
186
100
AcDbEntity
  8
0
 62
1
100
AcDbSpline
 70
8
 71
3
 72
8
 73
4
 74
0
 40
0
 40
0
 40
0
 40
0
 40
1
 40
1
 40
1
 40
1
 10
40.337302
 20
447.217188
 30
0.0
 10
40.465672
 20
447.217188
 30
0.0
 10
40.612747
 20
447.229022
 30
0.0
 10
40.778425
 20
447.252540
 30
0.0
  0
SPLINE
  5
187
100
AcDbEntity
  8
0
 62
1
100
AcDbSpline
 70
8
 71
3
 72
8
 73
4
 74
0
 40
0
 40
0
 40
0
 40
0
 40
1
 40
1
 40
1
 40
1
 10
40.778425
 20
447.252540
 30
0.0
 10
40.944254
 20
447.276108
 30
0.0
 10
41.073376
 20
447.318781
 30
0.0
 10
41.166044
 20
447.380559
 30
0.0
  0
SPLINE
  5
188
100
AcDbEntity
  8
0
 62
1
100
AcDbSpline
 70
8
 71
3
 72
8
 73
4
 74
0
 40
0
 40
0
 40
0
 40
0
 40
1
 40
1
 40
1
 40
1
 10
41.166044
 20
447.380559
 30
0.0
 10
41.258611
 20
447.442237
 30
0.0
 10
41.335082
 20
447.531244
 30
0.0
 10
41.395105
 20
447.647430
 30
0.0
  0
SPLINE
  5
189
100
AcDbEntity
  8
0
 62
1
100
AcDbSpline
 70
8
 71
3
 72
8
 73
4
 74
0
 40
0
 40
0
 40
0
 40
0
 40
1
 40
1
 40
1
 40
1
 10
41.395105
 20
447.647430
 30
0.0
 10
41.455329
 20
447.763615
 30
0.0
 10
41.485315
 20
447.906176
 30
0.0
 10
41.485315
 20
448.075214
 30
0.0
  0
SPLINE
  5
18a
100
AcDbEntity
  8
0
 62
1
100
AcDbSpline
 70
8
 71
3
 72
8
 73
4
 74
0
 40
0
 40
0
 40
0
 40
0
 40
1
 40
1
 40
1
 40
1
 10
41.485315
 20
448.075214
 30
0.0
 10
41.485315
 20
448.291338
 30
0.0
 10
41.438280
 20
448.484746
 30
0.0
 10
41.344007
 20
448.655389
 30
0.0
  0
SPLINE
  5
18b
100
AcDbEntity
  8
0
 62
1
100
AcDbSpline
 70
8
 71
3
 72
8
 73
4
 74
0
 40
0
 40
0
 40
0
 40
0
 40
1
 40
1
 40
1
 40
1
 10
41.344007
 20
448.655389
 30
0.0
 10
41.249685
 20
448.826032
 30
0.0
 10
41.129037
 20
448.942568
 30
0.0
 10
40.981963
 20
449.005098
 30
0.0
  0
SPLINE
  5
18c
100
AcDbEntity
  8
0
 62
1
100
AcDbSpline
 70
8
 71
3
 72
8
 73
4
 74
0
 40
0
 40
0
 40
0
 40
0
 40
1
 40
1
 40
1
 40
1
 10
40.981963
 20
449.005098
 30
0.0
 10
40.834938
 20
449.067679
 30
0.0
 10
40.585919
 20
449.099020
 30
0.0
 10
40.234856
 20
449.099020
 30
0.0
  0
LWPOLYLINE
  5
18d
100
AcDbEntity
  8
0
 62
1
100
AcDbPolyline
 90
6
 70
0
 10
38.401865
 20
446.393310
 30
0.0
 10
38.401865
 20
446.269001
 30
0.0
 10
38.311655
 20
446.269001
 30
0.0
 10
38.311655
 20
447.697424
 30
0.0
 10
38.401865
 20
447.697424
 30
0.0
 10
38.401865
 20
447.570658
 30
0.0
  0
SPLINE
  5
18e
100
AcDbEntity
  8
0
 62
1
100
AcDbSpline
 70
8
 71
3
 72
8
 73
4
 74
0
 40
0
 40
0
 40
0
 40
0
 40
1
 40
1
 40
1
 40
1
 10
38.896643
 20
449.099020
 30
0.0
 10
38.690298
 20
449.099020
 30
0.0
 10
38.561175
 20
449.076204
 30
0.0
 10
38.509175
 20
449.030773
 30
0.0
  0
SPLINE
  5
18f
100
AcDbEntity
  8
0
 62
1
100
AcDbSpline
 70
8
 71
3
 72
8
 73
4
 74
0
 40
0
 40
0
 40
0
 40
0
 40
1
 40
1
 40
1
 40
1
 10
38.509175
 20
449.030773
 30
0.0
 10
38.437618
 20
448.967390
 30
0.0
 10
38.401865
 20
448.873117
 30
0.0
 10
38.401865
 20
448.748006
 30
0.0
  0
LWPOLYLINE
  5
190
100
AcDbEntity
  8
0
 62
1
100
AcDbPolyline
 90
2
 70
0
 10
38.896643
 20
447.217188
 30
0.0
 10
40.337302
 20
447.217188
 30
0.0
  0
LWPOLYLINE
  5
191
100
AcDbEntity
  8
0
 62
1
100
AcDbPolyline
 90
2
 70
0
 10
40.234856
 20
449.099020
 30
0.0
 10
38.896643
 20
449.099020
 30
0.0
  0
SPLINE
  5
192
100
AcDbEntity
  8
0
 62
1
100
AcDbSpline
 70
8
 71
3
 72
8
 73
4
 74
0
 40
0
 40
0
 40
0
 40
0
 40
1
 40
1
 40
1
 40
1
 10
39.086802
 20
452.979299
 30
0.0
 10
38.950258
 20
452.961348
 30
0.0
 10
38.852777
 20
452.936977
 30
0.0
 10
38.794308
 20
452.906139
 30
0.0
  0
SPLINE
  5
193
100
AcDbEntity
  8
0
 62
1
100
AcDbSpline
 70
8
 71
3
 72
8
 73
4
 74
0
 40
0
 40
0
 40
0
 40
0
 40
1
 40
1
 40
1
 40
1
 10
38.794308
 20
452.906139
 30
0.0
 10
38.700036
 20
452.855794
 30
0.0
 10
38.630636
 20
452.788749
 30
0.0
 10
38.585957
 20
452.705058
 30
0.0
  0
SPLINE
  5
194
100
AcDbEntity
  8
0
 62
1
100
AcDbSpline
 70
8
 71
3
 72
8
 73
4
 74
0
 40
0
 40
0
 40
0
 40
0
 40
1
 40
1
 40
1
 40
1
 10
38.585957
 20
452.705058
 30
0.0
 10
38.541177
 20
452.621317
 30
0.0
 10
38.518913
 20
452.511299
 30
0.0
 10
38.518913
 20
452.374754
 30
0.0
  0
LWPOLYLINE
  5
195
100
AcDbEntity
  8
0
 62
1
100
AcDbPolyline
 90
2
 70
0
 10
38.401865
 20
448.748006
 30
0.0
 10
38.401865
 20
448.623698
 30
0.0
  0
SPLINE
  5
196
100
AcDbEntity
  8
0
 62
1
100
AcDbSpline
 70
8
 71
3
 72
8
 73
4
 74
0
 40
0
 40
0
 40
0
 40
0
 40
1
 40
1
 40
1
 40
1
 10
41.044102
 20
451.909211
 30
0.0
 10
41.247338
 20
451.909211
 30
0.0
 10
41.374004
 20
451.931125
 30
0.0
 10
41.424399
 20
451.975000
 30
0.0
  0
SPLINE
  5
197
100
AcDbEntity
  8
0
 62
1
100
AcDbSpline
 70
8
 71
3
 72
8
 73
4
 74
0
 40
0
 40
0
 40
0
 40
0
 40
1
 40
1
 40
1
 40
1
 10
41.424399
 20
451.975000
 30
0.0
 10
41.492647
 20
452.036728
 30
0.0
 10
41.526745
 20
452.131803
 30
0.0
 10
41.526745
 20
452.260224
 30
0.0
  0
LWPOLYLINE
  5
198
100
AcDbEntity
  8
0
 62
1
100
AcDbPolyline
 90
3
 70
0
 10
38.311665
 20
453.035312
 30
0.0
 10
39.086802
 20
453.071866
 30
0.0
 10
39.086802
 20
452.979299
 30
0.0
  0
SPLINE
  5
199
100
AcDbEntity
  8
0
 62
1
100
AcDbSpline
 70
8
 71
3
 72
8
 73
4
 74
0
 40
0
 40
0
 40
0
 40
0
 40
1
 40
1
 40
1
 40
1
 10
41.526745
 20
451.090147
 30
0.0
 10
41.526745
 20
451.229901
 30
0.0
 10
41.484573
 20
451.329087
 30
0.0
 10
41.400079
 20
451.387606
 30
0.0
  0
SPLINE
  5
19a
100
AcDbEntity
  8
0
 62
1
100
AcDbSpline
 70
8
 71
3
 72
8
 73
4
 74
0
 40
0
 40
0
 40
0
 40
0
 40
1
 40
1
 40
1
 40
1
 10
41.400079
 20
451.387606
 30
0.0
 10
41.348079
 20
451.423309
 30
0.0
 10
41.229437
 20
451.441210
 30
0.0
 10
41.044102
 20
451.441210
 30
0.0
  0
LWPOLYLINE
  5
19b
100
AcDbEntity
  8
0
 62
1
100
AcDbPolyline
 90
3
 70
0
 10
38.518913
 20
452.374754
 30
0.0
 10
38.518913
 20
451.909211
 30
0.0
 10
41.044102
 20
451.909211
 30
0.0
  0
SPLINE
  5
19c
100
AcDbEntity
  8
0
 62
1
100
AcDbSpline
 70
8
 71
3
 72
8
 73
4
 74
0
 40
0
 40
0
 40
0
 40
0
 40
1
 40
1
 40
1
 40
1
 10
38.518913
 20
451.043863
 30
0.0
 10
38.518913
 20
450.889467
 30
0.0
 10
38.530246
 20
450.779801
 30
0.0
 10
38.552961
 20
450.714863
 30
0.0
  0
SPLINE
  5
19d
100
AcDbEntity
  8
0
 62
1
100
AcDbSpline
 70
8
 71
3
 72
8
 73
4
 74
0
 40
0
 40
0
 40
0
 40
0
 40
1
 40
1
 40
1
 40
1
 10
38.552961
 20
450.714863
 30
0.0
 10
38.583901
 20
450.630319
 30
0.0
 10
38.643172
 20
450.557961
 30
0.0
 10
38.730925
 20
450.497837
 30
0.0
  0
SPLINE
  5
19e
100
AcDbEntity
  8
0
 62
1
100
AcDbSpline
 70
8
 71
3
 72
8
 73
4
 74
0
 40
0
 40
0
 40
0
 40
0
 40
1
 40
1
 40
1
 40
1
 10
38.730925
 20
450.497837
 30
0.0
 10
38.818678
 20
450.437714
 30
0.0
 10
38.937321
 20
450.401960
 30
0.0
 10
39.086802
 20
450.390628
 30
0.0
  0
LWPOLYLINE
  5
19f
100
AcDbEntity
  8
0
 62
1
100
AcDbPolyline
 90
6
 70
0
 10
41.526745
 20
452.260224
 30
0.0
 10
41.526745
 20
452.374754
 30
0.0
 10
41.616955
 20
452.374754
 30
0.0
 10
41.616955
 20
450.973210
 30
0.0
 10
41.526745
 20
450.973210
 30
0.0
 10
41.526745
 20
451.090147
 30
0.0
  0
LWPOLYLINE
  5
1a0
100
AcDbEntity
  8
0
 62
1
100
AcDbPolyline
 90
3
 70
0
 10
41.044102
 20
451.441210
 30
0.0
 10
38.518913
 20
451.441210
 30
0.0
 10
38.518913
 20
451.043863
 30
0.0
  0
SPLINE
  5
1a1
100
AcDbEntity
  8
0
 62
1
100
AcDbSpline
 70
8
 71
3
 72
8
 73
4
 74
0
 40
0
 40
0
 40
0
 40
0
 40
1
 40
1
 40
1
 40
1
 10
39.791270
 20
455.119115
 30
0.0
 10
39.791270
 20
455.257215
 30
0.0
 10
39.760833
 20
455.358357
 30
0.0
 10
39.699857
 20
455.422642
 30
0.0
  0
SPLINE
  5
1a2
100
AcDbEntity
  8
0
 62
1
100
AcDbSpline
 70
8
 71
3
 72
8
 73
4
 74
0
 40
0
 40
0
 40
0
 40
0
 40
1
 40
1
 40
1
 40
1
 10
39.699857
 20
455.422642
 30
0.0
 10
39.638931
 20
455.486777
 30
0.0
 10
39.518283
 20
455.529400
 30
0.0
 10
39.337862
 20
455.550561
 30
0.0
  0
LWPOLYLINE
  5
1a3
100
AcDbEntity
  8
0
 62
1
100
AcDbPolyline
 90
4
 70
0
 10
39.086802
 20
450.390628
 30
0.0
 10
39.086802
 20
450.297960
 30
0.0
 10
38.311665
 20
450.336923
 30
0.0
 10
38.311665
 20
453.035312
 30
0.0
  0
SPLINE
  5
1a4
100
AcDbEntity
  8
0
 62
1
100
AcDbSpline
 70
8
 71
3
 72
8
 73
4
 74
0
 40
0
 40
0
 40
0
 40
0
 40
1
 40
1
 40
1
 40
1
 10
40.456691
 20
455.550561
 30
0.0
 10
40.328371
 20
455.548957
 30
0.0
 10
40.234099
 20
455.532259
 30
0.0
 10
40.173925
 20
455.500567
 30
0.0
  0
SPLINE
  5
1a5
100
AcDbEntity
  8
0
 62
1
100
AcDbSpline
 70
8
 71
3
 72
8
 73
4
 74
0
 40
0
 40
0
 40
0
 40
0
 40
1
 40
1
 40
1
 40
1
 10
40.173925
 20
455.500567
 30
0.0
 10
40.113902
 20
455.468876
 30
0.0
 10
40.068721
 20
455.424999
 30
0.0
 10
40.038685
 20
455.368938
 30
0.0
  0
SPLINE
  5
1a6
100
AcDbEntity
  8
0
 62
1
100
AcDbSpline
 70
8
 71
3
 72
8
 73
4
 74
0
 40
0
 40
0
 40
0
 40
0
 40
1
 40
1
 40
1
 40
1
 10
40.038685
 20
455.368938
 30
0.0
 10
40.008648
 20
455.312875
 30
0.0
 10
39.993504
 20
455.229584
 30
0.0
 10
39.993504
 20
455.119115
 30
0.0
  0
LWPOLYLINE
  5
1a7
100
AcDbEntity
  8
0
 62
1
100
AcDbPolyline
 90
3
 70
0
 10
38.492071
 20
454.517029
 30
0.0
 10
39.791270
 20
454.517029
 30
0.0
 10
39.791270
 20
455.119115
 30
0.0
  0
SPLINE
  5
1a8
100
AcDbEntity
  8
0
 62
1
100
AcDbSpline
 70
8
 71
3
 72
8
 73
4
 74
0
 40
0
 40
0
 40
0
 40
0
 40
1
 40
1
 40
1
 40
1
 10
41.031952
 20
454.517029
 30
0.0
 10
41.199385
 20
454.517029
 30
0.0
 10
41.309854
 20
454.527608
 30
0.0
 10
41.363509
 20
454.548770
 30
0.0
  0
SPLINE
  5
1a9
100
AcDbEntity
  8
0
 62
1
100
AcDbSpline
 70
8
 71
3
 72
8
 73
4
 74
0
 40
0
 40
0
 40
0
 40
0
 40
1
 40
1
 40
1
 40
1
 10
41.363509
 20
454.548770
 30
0.0
 10
41.404126
 20
454.564916
 30
0.0
 10
41.439027
 20
454.599115
 30
0.0
 10
41.468311
 20
454.651115
 30
0.0
  0
SPLINE
  5
1aa
100
AcDbEntity
  8
0
 62
1
100
AcDbSpline
 70
8
 71
3
 72
8
 73
4
 74
0
 40
0
 40
0
 40
0
 40
0
 40
1
 40
1
 40
1
 40
1
 10
41.468311
 20
454.651115
 30
0.0
 10
41.507324
 20
454.722621
 30
0.0
 10
41.526780
 20
454.797387
 30
0.0
 10
41.526780
 20
454.875363
 30
0.0
  0
LWPOLYLINE
  5
1ab
100
AcDbEntity
  8
0
 62
1
100
AcDbPolyline
 90
4
 70
0
 10
39.337862
 20
455.550561
 30
0.0
 10
39.337862
 20
455.640772
 30
0.0
 10
40.456691
 20
455.640772
 30
0.0
 10
40.456691
 20
455.550561
 30
0.0
  0
SPLINE
  5
1ac
100
AcDbEntity
  8
0
 62
1
100
AcDbSpline
 70
8
 71
3
 72
8
 73
4
 74
0
 40
0
 40
0
 40
0
 40
0
 40
1
 40
1
 40
1
 40
1
 10
41.526780
 20
453.693150
 30
0.0
 10
41.526780
 20
453.829644
 30
0.0
 10
41.486965
 20
453.928780
 30
0.0
 10
41.407385
 20
453.990559
 30
0.0
  0
SPLINE
  5
1ad
100
AcDbEntity
  8
0
 62
1
100
AcDbSpline
 70
8
 71
3
 72
8
 73
4
 74
0
 40
0
 40
0
 40
0
 40
0
 40
1
 40
1
 40
1
 40
1
 10
41.407385
 20
453.990559
 30
0.0
 10
41.355385
 20
454.029521
 30
0.0
 10
41.230274
 20
454.049027
 30
0.0
 10
41.031952
 20
454.049027
 30
0.0
  0
LWPOLYLINE
  5
1ae
100
AcDbEntity
  8
0
 62
1
100
AcDbPolyline
 90
3
 70
0
 10
39.993504
 20
455.119115
 30
0.0
 10
39.993504
 20
454.517029
 30
0.0
 10
41.031952
 20
454.517029
 30
0.0
  0
SPLINE
  5
1af
100
AcDbEntity
  8
0
 62
1
100
AcDbSpline
 70
8
 71
3
 72
8
 73
4
 74
0
 40
0
 40
0
 40
0
 40
0
 40
1
 40
1
 40
1
 40
1
 10
38.896638
 20
454.049027
 30
0.0
 10
38.729305
 20
454.049027
 30
0.0
 10
38.618736
 20
454.038446
 30
0.0
 10
38.565131
 20
454.017336
 30
0.0
  0
SPLINE
  5
1b0
100
AcDbEntity
  8
0
 62
1
100
AcDbSpline
 70
8
 71
3
 72
8
 73
4
 74
0
 40
0
 40
0
 40
0
 40
0
 40
1
 40
1
 40
1
 40
1
 10
38.565131
 20
454.017336
 30
0.0
 10
38.524564
 20
454.001089
 30
0.0
 10
38.489613
 20
453.967743
 30
0.0
 10
38.460329
 20
453.917398
 30
0.0
  0
SPLINE
  5
1b1
100
AcDbEntity
  8
0
 62
1
100
AcDbSpline
 70
8
 71
3
 72
8
 73
4
 74
0
 40
0
 40
0
 40
0
 40
0
 40
1
 40
1
 40
1
 40
1
 10
38.460329
 20
453.917398
 30
0.0
 10
38.421417
 20
453.847496
 30
0.0
 10
38.401860
 20
453.772729
 30
0.0
 10
38.401860
 20
453.693150
 30
0.0
  0
LWPOLYLINE
  5
1b2
100
AcDbEntity
  8
0
 62
1
100
AcDbPolyline
 90
6
 70
0
 10
41.526780
 20
454.875363
 30
0.0
 10
41.526780
 20
454.994807
 30
0.0
 10
41.616940
 20
454.994807
 30
0.0
 10
41.616940
 20
453.576163
 30
0.0
 10
41.526780
 20
453.576163
 30
0.0
 10
41.526780
 20
453.693150
 30
0.0
  0
SPLINE
  5
1b3
100
AcDbEntity
  8
0
 62
1
100
AcDbSpline
 70
8
 71
3
 72
8
 73
4
 74
0
 40
0
 40
0
 40
0
 40
0
 40
1
 40
1
 40
1
 40
1
 10
39.038047
 20
455.982007
 30
0.0
 10
38.883701
 20
455.939735
 30
0.0
 10
38.770324
 20
455.890644
 30
0.0
 10
38.697965
 20
455.834481
 30
0.0
  0
SPLINE
  5
1b4
100
AcDbEntity
  8
0
 62
1
100
AcDbSpline
 70
8
 71
3
 72
8
 73
4
 74
0
 40
0
 40
0
 40
0
 40
0
 40
1
 40
1
 40
1
 40
1
 10
38.697965
 20
455.834481
 30
0.0
 10
38.625706
 20
455.778470
 30
0.0
 10
38.573255
 20
455.709370
 30
0.0
 10
38.540811
 20
455.627383
 30
0.0
  0
SPLINE
  5
1b5
100
AcDbEntity
  8
0
 62
1
100
AcDbSpline
 70
8
 71
3
 72
8
 73
4
 74
0
 40
0
 40
0
 40
0
 40
0
 40
1
 40
1
 40
1
 40
1
 10
38.540811
 20
455.627383
 30
0.0
 10
38.508267
 20
455.545246
 30
0.0
 10
38.492071
 20
455.418130
 30
0.0
 10
38.492071
 20
455.245882
 30
0.0
  0
LWPOLYLINE
  5
1b6
100
AcDbEntity
  8
0
 62
1
100
AcDbPolyline
 90
2
 70
0
 10
41.031952
 20
454.049027
 30
0.0
 10
38.896638
 20
454.049027
 30
0.0
  0
LWPOLYLINE
  5
1b7
100
AcDbEntity
  8
0
 62
1
100
AcDbPolyline
 90
6
 70
0
 10
38.401860
 20
453.693150
 30
0.0
 10
38.401860
 20
453.576163
 30
0.0
 10
38.311650
 20
453.576163
 30
0.0
 10
38.311650
 20
456.035612
 30
0.0
 10
39.038047
 20
456.067303
 30
0.0
 10
39.038047
 20
455.982007
 30
0.0
  0
SPLINE
  5
1b8
100
AcDbEntity
  8
0
 62
1
100
AcDbSpline
 70
8
 71
3
 72
8
 73
4
 74
0
 40
0
 40
0
 40
0
 40
0
 40
1
 40
1
 40
1
 40
1
 10
39.379306
 20
458.770265
 30
0.0
 10
39.159973
 20
458.740980
 30
0.0
 10
38.985219
 20
458.688629
 30
0.0
 10
38.855244
 20
458.613012
 30
0.0
  0
SPLINE
  5
1b9
100
AcDbEntity
  8
0
 62
1
100
AcDbSpline
 70
8
 71
3
 72
8
 73
4
 74
0
 40
0
 40
0
 40
0
 40
0
 40
1
 40
1
 40
1
 40
1
 10
38.855244
 20
458.613012
 30
0.0
 10
38.725269
 20
458.537443
 30
0.0
 10
38.622071
 20
458.429732
 30
0.0
 10
38.545700
 20
458.290129
 30
0.0
  0
SPLINE
  5
1ba
100
AcDbEntity
  8
0
 62
1
100
AcDbSpline
 70
8
 71
3
 72
8
 73
4
 74
0
 40
0
 40
0
 40
0
 40
0
 40
1
 40
1
 40
1
 40
1
 10
38.545700
 20
458.290129
 30
0.0
 10
38.469330
 20
458.150225
 30
0.0
 10
38.431069
 20
458.005658
 30
0.0
 10
38.431069
 20
457.856177
 30
0.0
  0
SPLINE
  5
1bb
100
AcDbEntity
  8
0
 62
1
100
AcDbSpline
 70
8
 71
3
 72
8
 73
4
 74
0
 40
0
 40
0
 40
0
 40
0
 40
1
 40
1
 40
1
 40
1
 10
38.431069
 20
457.856177
 30
0.0
 10
38.431069
 20
457.687139
 30
0.0
 10
38.482769
 20
457.547435
 30
0.0
 10
38.585967
 20
457.436966
 30
0.0
  0
SPLINE
  5
1bc
100
AcDbEntity
  8
0
 62
1
100
AcDbSpline
 70
8
 71
3
 72
8
 73
4
 74
0
 40
0
 40
0
 40
0
 40
0
 40
1
 40
1
 40
1
 40
1
 10
38.585967
 20
457.436966
 30
0.0
 10
38.689114
 20
457.326397
 30
0.0
 10
38.806453
 20
457.271188
 30
0.0
 10
38.938133
 20
457.271188
 30
0.0
  0
SPLINE
  5
1bd
100
AcDbEntity
  8
0
 62
1
100
AcDbSpline
 70
8
 71
3
 72
8
 73
4
 74
0
 40
0
 40
0
 40
0
 40
0
 40
1
 40
1
 40
1
 40
1
 10
38.938133
 20
457.271188
 30
0.0
 10
39.038874
 20
457.271188
 30
0.0
 10
39.130689
 20
457.306139
 30
0.0
 10
39.213578
 20
457.376041
 30
0.0
  0
SPLINE
  5
1be
100
AcDbEntity
  8
0
 62
1
100
AcDbSpline
 70
8
 71
3
 72
8
 73
4
 74
0
 40
0
 40
0
 40
0
 40
0
 40
1
 40
1
 40
1
 40
1
 10
39.213578
 20
457.376041
 30
0.0
 10
39.335430
 20
457.476681
 30
0.0
 10
39.497899
 20
457.716423
 30
0.0
 10
39.701085
 20
458.095116
 30
0.0
  0
SPLINE
  5
1bf
100
AcDbEntity
  8
0
 62
1
100
AcDbSpline
 70
8
 71
3
 72
8
 73
4
 74
0
 40
0
 40
0
 40
0
 40
0
 40
1
 40
1
 40
1
 40
1
 10
39.701085
 20
458.095116
 30
0.0
 10
39.866763
 20
458.403808
 30
0.0
 10
39.993981
 20
458.614666
 30
0.0
 10
40.082536
 20
458.727742
 30
0.0
  0
SPLINE
  5
1c0
100
AcDbEntity
  8
0
 62
1
100
AcDbSpline
 70
8
 71
3
 72
8
 73
4
 74
0
 40
0
 40
0
 40
0
 40
0
 40
1
 40
1
 40
1
 40
1
 10
40.082536
 20
458.727742
 30
0.0
 10
40.171142
 20
458.840568
 30
0.0
 10
40.275493
 20
458.927519
 30
0.0
 10
40.395740
 20
458.988445
 30
0.0
  0
SPLINE
  5
1c1
100
AcDbEntity
  8
0
 62
1
100
AcDbSpline
 70
8
 71
3
 72
8
 73
4
 74
0
 40
0
 40
0
 40
0
 40
0
 40
1
 40
1
 40
1
 40
1
 10
40.395740
 20
458.988445
 30
0.0
 10
40.516088
 20
459.049370
 30
0.0
 10
40.641951
 20
459.079908
 30
0.0
 10
40.773581
 20
459.079908
 30
0.0
  0
SPLINE
  5
1c2
100
AcDbEntity
  8
0
 62
1
100
AcDbSpline
 70
8
 71
3
 72
8
 73
4
 74
0
 40
0
 40
0
 40
0
 40
0
 40
1
 40
1
 40
1
 40
1
 10
40.773581
 20
459.079908
 30
0.0
 10
41.023853
 20
459.079908
 30
0.0
 10
41.239576
 20
458.982728
 30
0.0
 10
41.420799
 20
458.788618
 30
0.0
  0
SPLINE
  5
1c3
100
AcDbEntity
  8
0
 62
1
100
AcDbSpline
 70
8
 71
3
 72
8
 73
4
 74
0
 40
0
 40
0
 40
0
 40
0
 40
1
 40
1
 40
1
 40
1
 10
41.420799
 20
458.788618
 30
0.0
 10
41.601922
 20
458.594257
 30
0.0
 10
41.692584
 20
458.344587
 30
0.0
 10
41.692584
 20
458.039004
 30
0.0
  0
SPLINE
  5
1c4
100
AcDbEntity
  8
0
 62
1
100
AcDbSpline
 70
8
 71
3
 72
8
 73
4
 74
0
 40
0
 40
0
 40
0
 40
0
 40
1
 40
1
 40
1
 40
1
 10
41.692584
 20
458.039004
 30
0.0
 10
41.692584
 20
457.943128
 30
0.0
 10
41.685262
 20
457.852917
 30
0.0
 10
41.670570
 20
457.768423
 30
0.0
  0
SPLINE
  5
1c5
100
AcDbEntity
  8
0
 62
1
100
AcDbSpline
 70
8
 71
3
 72
8
 73
4
 74
0
 40
0
 40
0
 40
0
 40
0
 40
1
 40
1
 40
1
 40
1
 10
41.670570
 20
457.768423
 30
0.0
 10
41.662397
 20
457.718028
 30
0.0
 10
41.632811
 20
457.613677
 30
0.0
 10
41.581663
 20
457.455269
 30
0.0
  0
SPLINE
  5
1c6
100
AcDbEntity
  8
0
 62
1
100
AcDbSpline
 70
8
 71
3
 72
8
 73
4
 74
0
 40
0
 40
0
 40
0
 40
0
 40
1
 40
1
 40
1
 40
1
 10
41.581663
 20
457.455269
 30
0.0
 10
41.530365
 20
457.296712
 30
0.0
 10
41.504892
 20
457.196422
 30
0.0
 10
41.504892
 20
457.154200
 30
0.0
  0
SPLINE
  5
1c7
100
AcDbEntity
  8
0
 62
1
100
AcDbSpline
 70
8
 71
3
 72
8
 73
4
 74
0
 40
0
 40
0
 40
0
 40
0
 40
1
 40
1
 40
1
 40
1
 10
41.504892
 20
457.154200
 30
0.0
 10
41.504892
 20
457.113532
 30
0.0
 10
41.516977
 20
457.081441
 30
0.0
 10
41.541447
 20
457.057972
 30
0.0
  0
SPLINE
  5
1c8
100
AcDbEntity
  8
0
 62
1
100
AcDbSpline
 70
8
 71
3
 72
8
 73
4
 74
0
 40
0
 40
0
 40
0
 40
0
 40
1
 40
1
 40
1
 40
1
 10
41.541447
 20
457.057972
 30
0.0
 10
41.565768
 20
457.034355
 30
0.0
 10
41.616163
 20
457.016754
 30
0.0
 10
41.692584
 20
457.005520
 30
0.0
  0
LWPOLYLINE
  5
1c9
100
AcDbEntity
  8
0
 62
1
100
AcDbPolyline
 90
2
 70
0
 10
38.492071
 20
455.245882
 30
0.0
 10
38.492071
 20
454.517029
 30
0.0
  0
SPLINE
  5
1ca
100
AcDbEntity
  8
0
 62
1
100
AcDbSpline
 70
8
 71
3
 72
8
 73
4
 74
0
 40
0
 40
0
 40
0
 40
0
 40
1
 40
1
 40
1
 40
1
 10
40.559062
 20
457.005520
 30
0.0
 10
40.796347
 20
457.047692
 30
0.0
 10
40.973859
 20
457.104607
 30
0.0
 10
41.091699
 20
457.176164
 30
0.0
  0
SPLINE
  5
1cb
100
AcDbEntity
  8
0
 62
1
100
AcDbSpline
 70
8
 71
3
 72
8
 73
4
 74
0
 40
0
 40
0
 40
0
 40
0
 40
1
 40
1
 40
1
 40
1
 10
41.091699
 20
457.176164
 30
0.0
 10
41.209489
 20
457.247569
 30
0.0
 10
41.307422
 20
457.356885
 30
0.0
 10
41.385397
 20
457.503910
 30
0.0
  0
SPLINE
  5
1cc
100
AcDbEntity
  8
0
 62
1
100
AcDbSpline
 70
8
 71
3
 72
8
 73
4
 74
0
 40
0
 40
0
 40
0
 40
0
 40
1
 40
1
 40
1
 40
1
 10
41.385397
 20
457.503910
 30
0.0
 10
41.463322
 20
457.651085
 30
0.0
 10
41.502385
 20
457.812400
 30
0.0
 10
41.502385
 20
457.987857
 30
0.0
  0
SPLINE
  5
1cd
100
AcDbEntity
  8
0
 62
1
100
AcDbSpline
 70
8
 71
3
 72
8
 73
4
 74
0
 40
0
 40
0
 40
0
 40
0
 40
1
 40
1
 40
1
 40
1
 10
41.502385
 20
457.987857
 30
0.0
 10
41.502385
 20
458.190993
 30
0.0
 10
41.448730
 20
458.351455
 30
0.0
 10
41.341520
 20
458.469196
 30
0.0
  0
SPLINE
  5
1ce
100
AcDbEntity
  8
0
 62
1
100
AcDbSpline
 70
8
 71
3
 72
8
 73
4
 74
0
 40
0
 40
0
 40
0
 40
0
 40
1
 40
1
 40
1
 40
1
 10
41.341520
 20
458.469196
 30
0.0
 10
41.234261
 20
458.586986
 30
0.0
 10
41.107495
 20
458.646006
 30
0.0
 10
40.961323
 20
458.646006
 30
0.0
  0
SPLINE
  5
1cf
100
AcDbEntity
  8
0
 62
1
100
AcDbSpline
 70
8
 71
3
 72
8
 73
4
 74
0
 40
0
 40
0
 40
0
 40
0
 40
1
 40
1
 40
1
 40
1
 10
40.961323
 20
458.646006
 30
0.0
 10
40.880038
 20
458.646006
 30
0.0
 10
40.797951
 20
458.623641
 30
0.0
 10
40.715062
 20
458.578963
 30
0.0
  0
SPLINE
  5
1d0
100
AcDbEntity
  8
0
 62
1
100
AcDbSpline
 70
8
 71
3
 72
8
 73
4
 74
0
 40
0
 40
0
 40
0
 40
0
 40
1
 40
1
 40
1
 40
1
 10
40.715062
 20
458.578963
 30
0.0
 10
40.632223
 20
458.534183
 30
0.0
 10
40.555000
 20
458.464683
 30
0.0
 10
40.483443
 20
458.370511
 30
0.0
  0
SPLINE
  5
1d1
100
AcDbEntity
  8
0
 62
1
100
AcDbSpline
 70
8
 71
3
 72
8
 73
4
 74
0
 40
0
 40
0
 40
0
 40
0
 40
1
 40
1
 40
1
 40
1
 10
40.483443
 20
458.370511
 30
0.0
 10
40.434803
 20
458.307178
 30
0.0
 10
40.331154
 20
458.134180
 30
0.0
 10
40.172747
 20
457.851312
 30
0.0
  0
SPLINE
  5
1d2
100
AcDbEntity
  8
0
 62
1
100
AcDbSpline
 70
8
 71
3
 72
8
 73
4
 74
0
 40
0
 40
0
 40
0
 40
0
 40
1
 40
1
 40
1
 40
1
 10
40.172747
 20
457.851312
 30
0.0
 10
40.014239
 20
457.568496
 30
0.0
 10
39.887975
 20
457.367517
 30
0.0
 10
39.793703
 20
457.248020
 30
0.0
  0
SPLINE
  5
1d3
100
AcDbEntity
  8
0
 62
1
100
AcDbSpline
 70
8
 71
3
 72
8
 73
4
 74
0
 40
0
 40
0
 40
0
 40
0
 40
1
 40
1
 40
1
 40
1
 10
39.793703
 20
457.248020
 30
0.0
 10
39.699481
 20
457.128526
 30
0.0
 10
39.595380
 20
457.038015
 30
0.0
 10
39.481752
 20
456.976237
 30
0.0
  0
SPLINE
  5
1d4
100
AcDbEntity
  8
0
 62
1
100
AcDbSpline
 70
8
 71
3
 72
8
 73
4
 74
0
 40
0
 40
0
 40
0
 40
0
 40
1
 40
1
 40
1
 40
1
 10
39.481752
 20
456.976237
 30
0.0
 10
39.367924
 20
456.914458
 30
0.0
 10
39.242762
 20
456.883569
 30
0.0
 10
39.106319
 20
456.883569
 30
0.0
  0
SPLINE
  5
1d5
100
AcDbEntity
  8
0
 62
1
100
AcDbSpline
 70
8
 71
3
 72
8
 73
4
 74
0
 40
0
 40
0
 40
0
 40
0
 40
1
 40
1
 40
1
 40
1
 10
39.106319
 20
456.883569
 30
0.0
 10
38.869084
 20
456.883569
 30
0.0
 10
38.664794
 20
456.974632
 30
0.0
 10
38.493249
 20
457.156608
 30
0.0
  0
SPLINE
  5
1d6
100
AcDbEntity
  8
0
 62
1
100
AcDbSpline
 70
8
 71
3
 72
8
 73
4
 74
0
 40
0
 40
0
 40
0
 40
0
 40
1
 40
1
 40
1
 40
1
 10
38.493249
 20
457.156608
 30
0.0
 10
38.321854
 20
457.338532
 30
0.0
 10
38.236057
 20
457.570251
 30
0.0
 10
38.236057
 20
457.851312
 30
0.0
  0
SPLINE
  5
1d7
100
AcDbEntity
  8
0
 62
1
100
AcDbSpline
 70
8
 71
3
 72
8
 73
4
 74
0
 40
0
 40
0
 40
0
 40
0
 40
1
 40
1
 40
1
 40
1
 10
38.236057
 20
457.851312
 30
0.0
 10
38.236057
 20
458.026919
 30
0.0
 10
38.279181
 20
458.212906
 30
0.0
 10
38.365280
 20
458.409574
 30
0.0
  0
SPLINE
  5
1d8
100
AcDbEntity
  8
0
 62
1
100
AcDbSpline
 70
8
 71
3
 72
8
 73
4
 74
0
 40
0
 40
0
 40
0
 40
0
 40
1
 40
1
 40
1
 40
1
 10
38.365280
 20
458.409574
 30
0.0
 10
38.405947
 20
458.500537
 30
0.0
 10
38.426205
 20
458.564672
 30
0.0
 10
38.426205
 20
458.602130
 30
0.0
  0
SPLINE
  5
1d9
100
AcDbEntity
  8
0
 62
1
100
AcDbSpline
 70
8
 71
3
 72
8
 73
4
 74
0
 40
0
 40
0
 40
0
 40
0
 40
1
 40
1
 40
1
 40
1
 10
38.426205
 20
458.602130
 30
0.0
 10
38.426205
 20
458.644251
 30
0.0
 10
38.413669
 20
458.678801
 30
0.0
 10
38.388446
 20
458.705579
 30
0.0
  0
SPLINE
  5
1da
100
AcDbEntity
  8
0
 62
1
100
AcDbSpline
 70
8
 71
3
 72
8
 73
4
 74
0
 40
0
 40
0
 40
0
 40
0
 40
1
 40
1
 40
1
 40
1
 10
38.388446
 20
458.705579
 30
0.0
 10
38.363274
 20
458.732405
 30
0.0
 10
38.312527
 20
458.754069
 30
0.0
 10
38.236057
 20
458.770265
 30
0.0
  0
LWPOLYLINE
  5
1db
100
AcDbEntity
  8
0
 62
1
100
AcDbPolyline
 90
3
 70
0
 10
38.236057
 20
458.860475
 30
0.0
 10
39.379306
 20
458.860475
 30
0.0
 10
39.379306
 20
458.770265
 30
0.0
  0
LWPOLYLINE
  5
1dc
100
AcDbEntity
  8
0
 62
1
100
AcDbPolyline
 90
4
 70
0
 10
41.692584
 20
457.005520
 30
0.0
 10
41.692584
 20
456.915311
 30
0.0
 10
40.559062
 20
456.915311
 30
0.0
 10
40.559062
 20
457.005520
 30
0.0
  0
SPLINE
  5
1dd
100
AcDbEntity
  8
0
 62
1
100
AcDbSpline
 70
8
 71
3
 72
8
 73
4
 74
0
 40
0
 40
0
 40
0
 40
0
 40
1
 40
1
 40
1
 40
1
 10
41.044102
 20
460.412886
 30
0.0
 10
41.247338
 20
460.412886
 30
0.0
 10
41.374004
 20
460.434750
 30
0.0
 10
41.424399
 20
460.478726
 30
0.0
  0
SPLINE
  5
1de
100
AcDbEntity
  8
0
 62
1
100
AcDbSpline
 70
8
 71
3
 72
8
 73
4
 74
0
 40
0
 40
0
 40
0
 40
0
 40
1
 40
1
 40
1
 40
1
 10
41.424399
 20
460.478726
 30
0.0
 10
41.492647
 20
460.538800
 30
0.0
 10
41.526745
 20
460.633824
 30
0.0
 10
41.526745
 20
460.763899
 30
0.0
  0
LWPOLYLINE
  5
1df
100
AcDbEntity
  8
0
 62
1
100
AcDbPolyline
 90
2
 70
0
 10
38.236057
 20
458.770265
 30
0.0
 10
38.236057
 20
458.860475
 30
0.0
  0
SPLINE
  5
1e0
100
AcDbEntity
  8
0
 62
1
100
AcDbSpline
 70
8
 71
3
 72
8
 73
4
 74
0
 40
0
 40
0
 40
0
 40
0
 40
1
 40
1
 40
1
 40
1
 10
41.526745
 20
459.847455
 30
0.0
 10
41.526745
 20
459.987058
 30
0.0
 10
41.484573
 20
460.086293
 30
0.0
 10
41.400079
 20
460.144763
 30
0.0
  0
SPLINE
  5
1e1
100
AcDbEntity
  8
0
 62
1
100
AcDbSpline
 70
8
 71
3
 72
8
 73
4
 74
0
 40
0
 40
0
 40
0
 40
0
 40
1
 40
1
 40
1
 40
1
 10
41.400079
 20
460.144763
 30
0.0
 10
41.348079
 20
460.180615
 30
0.0
 10
41.229387
 20
460.198367
 30
0.0
 10
41.044102
 20
460.198367
 30
0.0
  0
LWPOLYLINE
  5
1e2
100
AcDbEntity
  8
0
 62
1
100
AcDbPolyline
 90
3
 70
0
 10
41.616955
 20
461.690173
 30
0.0
 10
38.835728
 20
460.412886
 30
0.0
 10
41.044102
 20
460.412886
 30
0.0
  0
SPLINE
  5
1e3
100
AcDbEntity
  8
0
 62
1
100
AcDbSpline
 70
8
 71
3
 72
8
 73
4
 74
0
 40
0
 40
0
 40
0
 40
0
 40
1
 40
1
 40
1
 40
1
 10
38.884518
 20
460.198367
 30
0.0
 10
38.738246
 20
460.198367
 30
0.0
 10
38.632541
 20
460.182069
 30
0.0
 10
38.567553
 20
460.149677
 30
0.0
  0
SPLINE
  5
1e4
100
AcDbEntity
  8
0
 62
1
100
AcDbSpline
 70
8
 71
3
 72
8
 73
4
 74
0
 40
0
 40
0
 40
0
 40
0
 40
1
 40
1
 40
1
 40
1
 10
38.567553
 20
460.149677
 30
0.0
 10
38.520518
 20
460.126911
 30
0.0
 10
38.481054
 20
460.085090
 30
0.0
 10
38.449412
 20
460.024164
 30
0.0
  0
SPLINE
  5
1e5
100
AcDbEntity
  8
0
 62
1
100
AcDbSpline
 70
8
 71
3
 72
8
 73
4
 74
0
 40
0
 40
0
 40
0
 40
0
 40
1
 40
1
 40
1
 40
1
 10
38.449412
 20
460.024164
 30
0.0
 10
38.417621
 20
459.963188
 30
0.0
 10
38.401875
 20
459.865205
 30
0.0
 10
38.401875
 20
459.730316
 30
0.0
  0
LWPOLYLINE
  5
1e6
100
AcDbEntity
  8
0
 62
1
100
AcDbPolyline
 90
6
 70
0
 10
41.526745
 20
460.763899
 30
0.0
 10
41.526745
 20
460.880937
 30
0.0
 10
41.616955
 20
460.880937
 30
0.0
 10
41.616955
 20
459.730316
 30
0.0
 10
41.526745
 20
459.730316
 30
0.0
 10
41.526745
 20
459.847455
 30
0.0
  0
SPLINE
  5
1e7
100
AcDbEntity
  8
0
 62
1
100
AcDbSpline
 70
8
 71
3
 72
8
 73
4
 74
0
 40
0
 40
0
 40
0
 40
0
 40
1
 40
1
 40
1
 40
1
 10
38.401875
 20
463.866905
 30
0.0
 10
38.401875
 20
463.725549
 30
0.0
 10
38.444147
 20
463.625610
 30
0.0
 10
38.528641
 20
463.567041
 30
0.0
  0
SPLINE
  5
1e8
100
AcDbEntity
  8
0
 62
1
100
AcDbSpline
 70
8
 71
3
 72
8
 73
4
 74
0
 40
0
 40
0
 40
0
 40
0
 40
1
 40
1
 40
1
 40
1
 10
38.528641
 20
463.567041
 30
0.0
 10
38.580641
 20
463.531337
 30
0.0
 10
38.699183
 20
463.513386
 30
0.0
 10
38.884518
 20
463.513386
 30
0.0
  0
LWPOLYLINE
  5
1e9
100
AcDbEntity
  8
0
 62
1
100
AcDbPolyline
 90
2
 70
0
 10
41.044102
 20
460.198367
 30
0.0
 10
38.884518
 20
460.198367
 30
0.0
  0
SPLINE
  5
1ea
100
AcDbEntity
  8
0
 62
1
100
AcDbSpline
 70
8
 71
3
 72
8
 73
4
 74
0
 40
0
 40
0
 40
0
 40
0
 40
1
 40
1
 40
1
 40
1
 10
41.044102
 20
463.513386
 30
0.0
 10
41.247338
 20
463.513386
 30
0.0
 10
41.374004
 20
463.536152
 30
0.0
 10
41.424399
 20
463.581733
 30
0.0
  0
SPLINE
  5
1eb
100
AcDbEntity
  8
0
 62
1
100
AcDbSpline
 70
8
 71
3
 72
8
 73
4
 74
0
 40
0
 40
0
 40
0
 40
0
 40
1
 40
1
 40
1
 40
1
 10
41.424399
 20
463.581733
 30
0.0
 10
41.492647
 20
463.641757
 30
0.0
 10
41.526745
 20
463.736880
 30
0.0
 10
41.526745
 20
463.866905
 30
0.0
  0
LWPOLYLINE
  5
1ec
100
AcDbEntity
  8
0
 62
1
100
AcDbPolyline
 90
8
 70
0
 10
38.401875
 20
459.730316
 30
0.0
 10
38.311665
 20
459.730316
 30
0.0
 10
38.311665
 20
460.666418
 30
0.0
 10
40.897880
 20
461.865730
 30
0.0
 10
38.311665
 20
463.045435
 30
0.0
 10
38.311665
 20
463.981437
 30
0.0
 10
38.401875
 20
463.981437
 30
0.0
 10
38.401875
 20
463.866905
 30
0.0
  0
SPLINE
  5
1ed
100
AcDbEntity
  8
0
 62
1
100
AcDbSpline
 70
8
 71
3
 72
8
 73
4
 74
0
 40
0
 40
0
 40
0
 40
0
 40
1
 40
1
 40
1
 40
1
 10
41.526745
 20
462.694371
 30
0.0
 10
41.526745
 20
462.835779
 30
0.0
 10
41.484573
 20
462.934866
 30
0.0
 10
41.400079
 20
462.991830
 30
0.0
  0
SPLINE
  5
1ee
100
AcDbEntity
  8
0
 62
1
100
AcDbSpline
 70
8
 71
3
 72
8
 73
4
 74
0
 40
0
 40
0
 40
0
 40
0
 40
1
 40
1
 40
1
 40
1
 10
41.400079
 20
462.991830
 30
0.0
 10
41.348079
 20
463.027533
 30
0.0
 10
41.229387
 20
463.045435
 30
0.0
 10
41.044102
 20
463.045435
 30
0.0
  0
LWPOLYLINE
  5
1ef
100
AcDbEntity
  8
0
 62
1
100
AcDbPolyline
 90
2
 70
0
 10
38.884518
 20
463.513386
 30
0.0
 10
41.044102
 20
463.513386
 30
0.0
  0
LWPOLYLINE
  5
1f0
100
AcDbEntity
  8
0
 62
1
100
AcDbPolyline
 90
6
 70
0
 10
41.526745
 20
463.866905
 30
0.0
 10
41.526745
 20
463.981437
 30
0.0
 10
41.616955
 20
463.981437
 30
0.0
 10
41.616955
 20
462.577485
 30
0.0
 10
41.526745
 20
462.577485
 30
0.0
 10
41.526745
 20
462.694371
 30
0.0
  0
LWPOLYLINE
  5
1f1
100
AcDbEntity
  8
0
 62
1
100
AcDbPolyline
 90
4
 70
0
 10
41.044102
 20
463.045435
 30
0.0
 10
38.835728
 20
463.045435
 30
0.0
 10
41.616955
 20
461.770605
 30
0.0
 10
41.616955
 20
461.690173
 30
0.0
  0
LWPOLYLINE
  5
1f2
100
AcDbEntity
  8
0
 62
1
100
AcDbPolyline
 90
4
 70
1
 10
37.657798
 20
452.338781
 30
0.0
 10
37.657798
 20
446.743982
 30
0.0
 10
37.412590
 20
446.743982
 30
0.0
 10
37.412590
 20
452.338781
 30
0.0
  0
LWPOLYLINE
  5
1f3
100
AcDbEntity
  8
0
 62
1
100
AcDbPolyline
 90
4
 70
1
 10
37.657798
 20
457.933579
 30
0.0
 10
37.657798
 20
452.338781
 30
0.0
 10
37.412590
 20
452.338781
 30
0.0
 10
37.412590
 20
457.933579
 30
0.0
  0
SPLINE
  5
1f4
100
AcDbEntity
  8
0
 62
1
100
AcDbSpline
 70
8
 71
3
 72
8
 73
4
 74
0
 40
0
 40
0
 40
0
 40
0
 40
1
 40
1
 40
1
 40
1
 10
35.591899
 20
449.418231
 30
0.0
 10
36.085574
 20
449.418231
 30
0.0
 10
36.457197
 20
449.695581
 30
0.0
 10
36.457197
 20
450.172608
 30
0.0
  0
SPLINE
  5
1f5
100
AcDbEntity
  8
0
 62
1
100
AcDbSpline
 70
8
 71
3
 72
8
 73
4
 74
0
 40
0
 40
0
 40
0
 40
0
 40
1
 40
1
 40
1
 40
1
 10
36.457197
 20
450.172608
 30
0.0
 10
36.457197
 20
450.660667
 30
0.0
 10
36.052328
 20
450.938068
 30
0.0
 10
35.597415
 20
450.938068
 30
0.0
  0
SPLINE
  5
1f6
100
AcDbEntity
  8
0
 62
1
100
AcDbSpline
 70
8
 71
3
 72
8
 73
4
 74
0
 40
0
 40
0
 40
0
 40
0
 40
1
 40
1
 40
1
 40
1
 10
35.597415
 20
450.938068
 30
0.0
 10
35.003952
 20
450.938068
 30
0.0
 10
34.743300
 20
450.527582
 30
0.0
 10
34.743300
 20
450.172608
 30
0.0
  0
SPLINE
  5
1f7
100
AcDbEntity
  8
0
 62
1
100
AcDbSpline
 70
8
 71
3
 72
8
 73
4
 74
0
 40
0
 40
0
 40
0
 40
0
 40
1
 40
1
 40
1
 40
1
 10
34.743300
 20
450.172608
 30
0.0
 10
34.743300
 20
449.778721
 30
0.0
 10
35.031733
 20
449.418231
 30
0.0
 10
35.591899
 20
449.418231
 30
0.0
  0
LWPOLYLINE
  5
1f8
100
AcDbEntity
  8
0
 62
1
100
AcDbPolyline
 90
4
 70
1
 10
37.657798
 20
463.528378
 30
0.0
 10
37.657798
 20
457.933579
 30
0.0
 10
37.412590
 20
457.933579
 30
0.0
 10
37.412590
 20
463.528378
 30
0.0
  0
SPLINE
  5
1f9
100
AcDbEntity
  8
0
 62
1
100
AcDbSpline
 70
8
 71
3
 72
8
 73
4
 74
0
 40
0
 40
0
 40
0
 40
0
 40
1
 40
1
 40
1
 40
1
 10
36.423951
 20
450.915853
 30
0.0
 10
36.595847
 20
450.782720
 30
0.0
 10
36.812222
 20
450.533099
 30
0.0
 10
36.812222
 20
450.128230
 30
0.0
  0
SPLINE
  5
1fa
100
AcDbEntity
  8
0
 62
1
100
AcDbSpline
 70
8
 71
3
 72
8
 73
4
 74
0
 40
0
 40
0
 40
0
 40
0
 40
1
 40
1
 40
1
 40
1
 10
36.812222
 20
450.128230
 30
0.0
 10
36.812222
 20
449.545849
 30
0.0
 10
36.401737
 20
449.007746
 30
0.0
 10
35.591899
 20
449.007746
 30
0.0
  0
SPLINE
  5
1fb
100
AcDbEntity
  8
0
 62
1
100
AcDbSpline
 70
8
 71
3
 72
8
 73
4
 74
0
 40
0
 40
0
 40
0
 40
0
 40
1
 40
1
 40
1
 40
1
 10
35.591899
 20
449.007746
 30
0.0
 10
34.798710
 20
449.007746
 30
0.0
 10
34.388275
 20
449.540283
 30
0.0
 10
34.388275
 20
450.128230
 30
0.0
  0
SPLINE
  5
1fc
100
AcDbEntity
  8
0
 62
1
100
AcDbSpline
 70
8
 71
3
 72
8
 73
4
 74
0
 40
0
 40
0
 40
0
 40
0
 40
1
 40
1
 40
1
 40
1
 10
34.388275
 20
450.128230
 30
0.0
 10
34.388275
 20
450.571961
 30
0.0
 10
34.632330
 20
450.810499
 30
0.0
 10
34.771030
 20
450.915853
 30
0.0
  0
LWPOLYLINE
  5
1fd
100
AcDbEntity
  8
0
 62
1
100
AcDbPolyline
 90
10
 70
1
 10
33.434257
 20
448.431006
 30
0.0
 10
33.434257
 20
447.155274
 30
0.0
 10
34.526961
 20
447.155274
 30
0.0
 10
34.526961
 20
448.386628
 30
0.0
 10
34.915231
 20
448.386628
 30
0.0
 10
34.915231
 20
447.155274
 30
0.0
 10
36.745665
 20
447.155274
 30
0.0
 10
36.745665
 20
446.744789
 30
0.0
 10
33.045936
 20
446.744789
 30
0.0
 10
33.045936
 20
448.431006
 30
0.0
  0
SPLINE
  5
1fe
100
AcDbEntity
  8
0
 62
1
100
AcDbSpline
 70
8
 71
3
 72
8
 73
4
 74
0
 40
0
 40
0
 40
0
 40
0
 40
1
 40
1
 40
1
 40
1
 10
35.608598
 20
454.299164
 30
0.0
 10
35.042764
 20
454.299164
 30
0.0
 10
34.743300
 20
453.916460
 30
0.0
 10
34.743300
 20
453.544786
 30
0.0
  0
SPLINE
  5
1ff
100
AcDbEntity
  8
0
 62
1
100
AcDbSpline
 70
8
 71
3
 72
8
 73
4
 74
0
 40
0
 40
0
 40
0
 40
0
 40
1
 40
1
 40
1
 40
1
 10
34.743300
 20
453.544786
 30
0.0
 10
34.743300
 20
453.173165
 30
0.0
 10
35.048330
 20
452.779327
 30
0.0
 10
35.603032
 20
452.779327
 30
0.0
  0
SPLINE
  5
200
100
AcDbEntity
  8
0
 62
1
100
AcDbSpline
 70
8
 71
3
 72
8
 73
4
 74
0
 40
0
 40
0
 40
0
 40
0
 40
1
 40
1
 40
1
 40
1
 10
35.603032
 20
452.779327
 30
0.0
 10
36.074492
 20
452.779327
 30
0.0
 10
36.457197
 20
453.078892
 30
0.0
 10
36.457197
 20
453.550303
 30
0.0
  0
SPLINE
  5
201
100
AcDbEntity
  8
0
 62
1
100
AcDbSpline
 70
8
 71
3
 72
8
 73
4
 74
0
 40
0
 40
0
 40
0
 40
0
 40
1
 40
1
 40
1
 40
1
 10
36.457197
 20
453.550303
 30
0.0
 10
36.457197
 20
454.016248
 30
0.0
 10
36.068976
 20
454.299164
 30
0.0
 10
35.608598
 20
454.299164
 30
0.0
  0
LWPOLYLINE
  5
202
100
AcDbEntity
  8
0
 62
1
100
AcDbPolyline
 90
5
 70
0
 10
34.443735
 20
450.915853
 30
0.0
 10
34.443735
 20
451.315207
 30
0.0
 10
36.745680
 20
451.315207
 30
0.0
 10
36.745680
 20
450.915853
 30
0.0
 10
36.423951
 20
450.915853
 30
0.0
  0
SPLINE
  5
203
100
AcDbEntity
  8
0
 62
1
100
AcDbSpline
 70
8
 71
3
 72
8
 73
4
 74
0
 40
0
 40
0
 40
0
 40
0
 40
1
 40
1
 40
1
 40
1
 10
34.765514
 20
452.801542
 30
0.0
 10
34.427087
 20
453.073376
 30
0.0
 10
34.388275
 20
453.422735
 30
0.0
 10
34.388275
 20
453.589215
 30
0.0
  0
SPLINE
  5
204
100
AcDbEntity
  8
0
 62
1
100
AcDbSpline
 70
8
 71
3
 72
8
 73
4
 74
0
 40
0
 40
0
 40
0
 40
0
 40
1
 40
1
 40
1
 40
1
 10
34.388275
 20
453.589215
 30
0.0
 10
34.388275
 20
454.310296
 30
0.0
 10
34.987354
 20
454.709650
 30
0.0
 10
35.608598
 20
454.709650
 30
0.0
  0
SPLINE
  5
205
100
AcDbEntity
  8
0
 62
1
100
AcDbSpline
 70
8
 71
3
 72
8
 73
4
 74
0
 40
0
 40
0
 40
0
 40
0
 40
1
 40
1
 40
1
 40
1
 10
35.608598
 20
454.709650
 30
0.0
 10
36.240822
 20
454.709650
 30
0.0
 10
36.812222
 20
454.304680
 30
0.0
 10
36.812222
 20
453.605863
 30
0.0
  0
SPLINE
  5
206
100
AcDbEntity
  8
0
 62
1
100
AcDbSpline
 70
8
 71
3
 72
8
 73
4
 74
0
 40
0
 40
0
 40
0
 40
0
 40
1
 40
1
 40
1
 40
1
 10
36.812222
 20
453.605863
 30
0.0
 10
36.812222
 20
453.234190
 30
0.0
 10
36.645842
 20
452.973488
 30
0.0
 10
36.423951
 20
452.801542
 30
0.0
  0
LWPOLYLINE
  5
207
100
AcDbEntity
  8
0
 62
1
100
AcDbPolyline
 90
2
 70
0
 10
34.771030
 20
450.915853
 30
0.0
 10
34.443735
 20
450.915853
 30
0.0
  0
LWPOLYLINE
  5
208
100
AcDbEntity
  8
0
 62
1
100
AcDbPolyline
 90
5
 70
0
 10
36.745680
 20
452.801542
 30
0.0
 10
36.745680
 20
452.402189
 30
0.0
 10
32.702058
 20
452.402189
 30
0.0
 10
32.702058
 20
452.801542
 30
0.0
 10
34.765514
 20
452.801542
 30
0.0
  0
SPLINE
  5
209
100
AcDbEntity
  8
0
 62
1
100
AcDbSpline
 70
8
 71
3
 72
8
 73
4
 74
0
 40
0
 40
0
 40
0
 40
0
 40
1
 40
1
 40
1
 40
1
 10
35.591899
 20
458.237041
 30
0.0
 10
36.085574
 20
458.237041
 30
0.0
 10
36.457197
 20
458.514341
 30
0.0
 10
36.457197
 20
458.991418
 30
0.0
  0
SPLINE
  5
20a
100
AcDbEntity
  8
0
 62
1
100
AcDbSpline
 70
8
 71
3
 72
8
 73
4
 74
0
 40
0
 40
0
 40
0
 40
0
 40
1
 40
1
 40
1
 40
1
 10
36.457197
 20
458.991418
 30
0.0
 10
36.457197
 20
459.479527
 30
0.0
 10
36.052328
 20
459.756827
 30
0.0
 10
35.597415
 20
459.756827
 30
0.0
  0
SPLINE
  5
20b
100
AcDbEntity
  8
0
 62
1
100
AcDbSpline
 70
8
 71
3
 72
8
 73
4
 74
0
 40
0
 40
0
 40
0
 40
0
 40
1
 40
1
 40
1
 40
1
 10
35.597415
 20
459.756827
 30
0.0
 10
35.003952
 20
459.756827
 30
0.0
 10
34.743300
 20
459.346393
 30
0.0
 10
34.743300
 20
458.991418
 30
0.0
  0
SPLINE
  5
20c
100
AcDbEntity
  8
0
 62
1
100
AcDbSpline
 70
8
 71
3
 72
8
 73
4
 74
0
 40
0
 40
0
 40
0
 40
0
 40
1
 40
1
 40
1
 40
1
 10
34.743300
 20
458.991418
 30
0.0
 10
34.743300
 20
458.597531
 30
0.0
 10
35.031733
 20
458.237041
 30
0.0
 10
35.591899
 20
458.237041
 30
0.0
  0
LWPOLYLINE
  5
20d
100
AcDbEntity
  8
0
 62
1
100
AcDbPolyline
 90
2
 70
0
 10
36.423951
 20
452.801542
 30
0.0
 10
36.745680
 20
452.801542
 30
0.0
  0
SPLINE
  5
20e
100
AcDbEntity
  8
0
 62
1
100
AcDbSpline
 70
8
 71
3
 72
8
 73
4
 74
0
 40
0
 40
0
 40
0
 40
0
 40
1
 40
1
 40
1
 40
1
 10
36.423951
 20
459.734614
 30
0.0
 10
36.595847
 20
459.601479
 30
0.0
 10
36.812222
 20
459.351908
 30
0.0
 10
36.812222
 20
458.947040
 30
0.0
  0
SPLINE
  5
20f
100
AcDbEntity
  8
0
 62
1
100
AcDbSpline
 70
8
 71
3
 72
8
 73
4
 74
0
 40
0
 40
0
 40
0
 40
0
 40
1
 40
1
 40
1
 40
1
 10
36.812222
 20
458.947040
 30
0.0
 10
36.812222
 20
458.364659
 30
0.0
 10
36.401737
 20
457.826506
 30
0.0
 10
35.591899
 20
457.826506
 30
0.0
  0
SPLINE
  5
210
100
AcDbEntity
  8
0
 62
1
100
AcDbSpline
 70
8
 71
3
 72
8
 73
4
 74
0
 40
0
 40
0
 40
0
 40
0
 40
1
 40
1
 40
1
 40
1
 10
35.591899
 20
457.826506
 30
0.0
 10
34.798710
 20
457.826506
 30
0.0
 10
34.388275
 20
458.359043
 30
0.0
 10
34.388275
 20
458.947040
 30
0.0
  0
SPLINE
  5
211
100
AcDbEntity
  8
0
 62
1
100
AcDbSpline
 70
8
 71
3
 72
8
 73
4
 74
0
 40
0
 40
0
 40
0
 40
0
 40
1
 40
1
 40
1
 40
1
 10
34.388275
 20
458.947040
 30
0.0
 10
34.388275
 20
459.390771
 30
0.0
 10
34.632330
 20
459.629310
 30
0.0
 10
34.771030
 20
459.734614
 30
0.0
  0
LWPOLYLINE
  5
212
100
AcDbEntity
  8
0
 62
1
100
AcDbPolyline
 90
6
 70
1
 10
33.045931
 20
456.162648
 30
0.0
 10
36.357389
 20
456.162648
 30
0.0
 10
36.357389
 20
457.183294
 30
0.0
 10
36.745660
 20
457.183294
 30
0.0
 10
36.745660
 20
455.752163
 30
0.0
 10
33.045931
 20
455.752163
 30
0.0
  0
SPLINE
  5
213
100
AcDbEntity
  8
0
 62
1
100
AcDbSpline
 70
8
 71
3
 72
8
 73
4
 74
0
 40
0
 40
0
 40
0
 40
0
 40
1
 40
1
 40
1
 40
1
 10
35.608598
 20
463.117980
 30
0.0
 10
35.042764
 20
463.117980
 30
0.0
 10
34.743300
 20
462.735274
 30
0.0
 10
34.743300
 20
462.363652
 30
0.0
  0
SPLINE
  5
214
100
AcDbEntity
  8
0
 62
1
100
AcDbSpline
 70
8
 71
3
 72
8
 73
4
 74
0
 40
0
 40
0
 40
0
 40
0
 40
1
 40
1
 40
1
 40
1
 10
34.743300
 20
462.363652
 30
0.0
 10
34.743300
 20
461.991979
 30
0.0
 10
35.048330
 20
461.598092
 30
0.0
 10
35.603032
 20
461.598092
 30
0.0
  0
SPLINE
  5
215
100
AcDbEntity
  8
0
 62
1
100
AcDbSpline
 70
8
 71
3
 72
8
 73
4
 74
0
 40
0
 40
0
 40
0
 40
0
 40
1
 40
1
 40
1
 40
1
 10
35.603032
 20
461.598092
 30
0.0
 10
36.074492
 20
461.598092
 30
0.0
 10
36.457197
 20
461.897708
 30
0.0
 10
36.457197
 20
462.369118
 30
0.0
  0
SPLINE
  5
216
100
AcDbEntity
  8
0
 62
1
100
AcDbSpline
 70
8
 71
3
 72
8
 73
4
 74
0
 40
0
 40
0
 40
0
 40
0
 40
1
 40
1
 40
1
 40
1
 10
36.457197
 20
462.369118
 30
0.0
 10
36.457197
 20
462.835063
 30
0.0
 10
36.068976
 20
463.117980
 30
0.0
 10
35.608598
 20
463.117980
 30
0.0
  0
LWPOLYLINE
  5
217
100
AcDbEntity
  8
0
 62
1
100
AcDbPolyline
 90
5
 70
0
 10
34.443735
 20
459.734614
 30
0.0
 10
34.443735
 20
460.133966
 30
0.0
 10
36.745680
 20
460.133966
 30
0.0
 10
36.745680
 20
459.734614
 30
0.0
 10
36.423951
 20
459.734614
 30
0.0
  0
SPLINE
  5
218
100
AcDbEntity
  8
0
 62
1
100
AcDbSpline
 70
8
 71
3
 72
8
 73
4
 74
0
 40
0
 40
0
 40
0
 40
0
 40
1
 40
1
 40
1
 40
1
 10
34.765514
 20
461.620306
 30
0.0
 10
34.427087
 20
461.892191
 30
0.0
 10
34.388275
 20
462.241550
 30
0.0
 10
34.388275
 20
462.408030
 30
0.0
  0
SPLINE
  5
219
100
AcDbEntity
  8
0
 62
1
100
AcDbSpline
 70
8
 71
3
 72
8
 73
4
 74
0
 40
0
 40
0
 40
0
 40
0
 40
1
 40
1
 40
1
 40
1
 10
34.388275
 20
462.408030
 30
0.0
 10
34.388275
 20
463.129061
 30
0.0
 10
34.987354
 20
463.528414
 30
0.0
 10
35.608598
 20
463.528414
 30
0.0
  0
SPLINE
  5
21a
100
AcDbEntity
  8
0
 62
1
100
AcDbSpline
 70
8
 71
3
 72
8
 73
4
 74
0
 40
0
 40
0
 40
0
 40
0
 40
1
 40
1
 40
1
 40
1
 10
35.608598
 20
463.528414
 30
0.0
 10
36.240822
 20
463.528414
 30
0.0
 10
36.812222
 20
463.123495
 30
0.0
 10
36.812222
 20
462.424678
 30
0.0
  0
SPLINE
  5
21b
100
AcDbEntity
  8
0
 62
1
100
AcDbSpline
 70
8
 71
3
 72
8
 73
4
 74
0
 40
0
 40
0
 40
0
 40
0
 40
1
 40
1
 40
1
 40
1
 10
36.812222
 20
462.424678
 30
0.0
 10
36.812222
 20
462.053006
 30
0.0
 10
36.645842
 20
461.792303
 30
0.0
 10
36.423951
 20
461.620306
 30
0.0
  0
LWPOLYLINE
  5
21c
100
AcDbEntity
  8
0
 62
1
100
AcDbPolyline
 90
2
 70
0
 10
34.771030
 20
459.734614
 30
0.0
 10
34.443735
 20
459.734614
 30
0.0
  0
LWPOLYLINE
  5
21d
100
AcDbEntity
  8
0
 62
1
100
AcDbPolyline
 90
5
 70
0
 10
36.745680
 20
461.620306
 30
0.0
 10
36.745680
 20
461.220954
 30
0.0
 10
32.702058
 20
461.220954
 30
0.0
 10
32.702058
 20
461.620306
 30
0.0
 10
34.765514
 20
461.620306
 30
0.0
  0
LWPOLYLINE
  5
21e
100
AcDbEntity
  8
0
 62
1
100
AcDbPolyline
 90
2
 70
0
 10
36.423951
 20
461.620306
 30
0.0
 10
36.745680
 20
461.620306
 30
0.0
  0
LWPOLYLINE
  5
21f
100
AcDbEntity
  8
0
 62
1
100
AcDbPolyline
 90
4
 70
1
 10
39.794164
 20
440.495842
 30
0.0
 10
41.543513
 20
440.495842
 30
0.0
 10
39.656868
 20
443.589020
 30
0.0
 10
37.908020
 20
443.589020
 30
0.0
  0
SPLINE
  5
220
100
AcDbEntity
  8
0
 62
1
100
AcDbSpline
 70
8
 71
3
 72
8
 73
4
 74
0
 40
0
 40
0
 40
0
 40
0
 40
1
 40
1
 40
1
 40
1
 10
38.815509
 20
438.645922
 30
0.0
 10
38.815359
 20
438.645572
 30
0.0
 10
38.815309
 20
438.645170
 30
0.0
 10
38.815108
 20
438.644869
 30
0.0
  0
SPLINE
  5
221
100
AcDbEntity
  8
0
 62
1
100
AcDbSpline
 70
8
 71
3
 72
8
 73
4
 74
0
 40
0
 40
0
 40
0
 40
0
 40
1
 40
1
 40
1
 40
1
 10
38.815108
 20
438.644869
 30
0.0
 10
38.814758
 20
438.644268
 30
0.0
 10
38.814305
 20
438.643866
 30
0.0
 10
38.813955
 20
438.643265
 30
0.0
  0
LWPOLYLINE
  5
222
100
AcDbEntity
  8
0
 62
1
100
AcDbPolyline
 90
4
 70
1
 10
37.547449
 20
439.904686
 30
0.0
 10
36.890503
 20
438.826975
 30
0.0
 10
38.490270
 20
438.826975
 30
0.0
 10
37.690010
 20
440.138360
 30
0.0
  0
SPLINE
  5
223
100
AcDbEntity
  8
0
 62
1
100
AcDbSpline
 70
8
 71
3
 72
8
 73
4
 74
0
 40
0
 40
0
 40
0
 40
0
 40
1
 40
1
 40
1
 40
1
 10
38.812500
 20
438.640958
 30
0.0
 10
38.811046
 20
438.638601
 30
0.0
 10
38.808940
 20
438.636746
 30
0.0
 10
38.807336
 20
438.634439
 30
0.0
  0
SPLINE
  5
224
100
AcDbEntity
  8
0
 62
1
100
AcDbSpline
 70
8
 71
3
 72
8
 73
4
 74
0
 40
0
 40
0
 40
0
 40
0
 40
1
 40
1
 40
1
 40
1
 10
38.807336
 20
438.634439
 30
0.0
 10
38.802973
 20
438.628372
 30
0.0
 10
38.798711
 20
438.622304
 30
0.0
 10
38.793445
 20
438.617189
 30
0.0
  0
SPLINE
  5
225
100
AcDbEntity
  8
0
 62
1
100
AcDbSpline
 70
8
 71
3
 72
8
 73
4
 74
0
 40
0
 40
0
 40
0
 40
0
 40
1
 40
1
 40
1
 40
1
 10
38.793445
 20
438.617189
 30
0.0
 10
38.793195
 20
438.616939
 30
0.0
 10
38.793094
 20
438.616688
 30
0.0
 10
38.792843
 20
438.616437
 30
0.0
  0
SPLINE
  5
226
100
AcDbEntity
  8
0
 62
1
100
AcDbSpline
 70
8
 71
3
 72
8
 73
4
 74
0
 40
0
 40
0
 40
0
 40
0
 40
1
 40
1
 40
1
 40
1
 10
38.792844
 20
438.616437
 30
0.0
 10
38.790587
 20
438.614281
 30
0.0
 10
38.787779
 20
438.612927
 30
0.0
 10
38.785372
 20
438.610972
 30
0.0
  0
SPLINE
  5
227
100
AcDbEntity
  8
0
 62
1
100
AcDbSpline
 70
8
 71
3
 72
8
 73
4
 74
0
 40
0
 40
0
 40
0
 40
0
 40
1
 40
1
 40
1
 40
1
 10
38.785372
 20
438.610972
 30
0.0
 10
38.779956
 20
438.606509
 30
0.0
 10
38.774691
 20
438.601895
 30
0.0
 10
38.768574
 20
438.598486
 30
0.0
  0
SPLINE
  5
228
100
AcDbEntity
  8
0
 62
1
100
AcDbSpline
 70
8
 71
3
 72
8
 73
4
 74
0
 40
0
 40
0
 40
0
 40
0
 40
1
 40
1
 40
1
 40
1
 10
38.768574
 20
438.598486
 30
0.0
 10
38.764713
 20
438.596279
 30
0.0
 10
38.760450
 20
438.595076
 30
0.0
 10
38.756439
 20
438.593321
 30
0.0
  0
SPLINE
  5
229
100
AcDbEntity
  8
0
 62
1
100
AcDbSpline
 70
8
 71
3
 72
8
 73
4
 74
0
 40
0
 40
0
 40
0
 40
0
 40
1
 40
1
 40
1
 40
1
 10
38.756439
 20
438.593321
 30
0.0
 10
38.756289
 20
438.593268
 30
0.0
 10
38.756188
 20
438.593214
 30
0.0
 10
38.756087
 20
438.593171
 30
0.0
  0
SPLINE
  5
22a
100
AcDbEntity
  8
0
 62
1
100
AcDbSpline
 70
8
 71
3
 72
8
 73
4
 74
0
 40
0
 40
0
 40
0
 40
0
 40
1
 40
1
 40
1
 40
1
 10
38.756088
 20
438.593170
 30
0.0
 10
38.750722
 20
438.590863
 30
0.0
 10
38.745507
 20
438.588156
 30
0.0
 10
38.739841
 20
438.586601
 30
0.0
  0
SPLINE
  5
22b
100
AcDbEntity
  8
0
 62
1
100
AcDbSpline
 70
8
 71
3
 72
8
 73
4
 74
0
 40
0
 40
0
 40
0
 40
0
 40
1
 40
1
 40
1
 40
1
 10
38.739841
 20
438.586601
 30
0.0
 10
38.729611
 20
438.583893
 30
0.0
 10
38.718981
 20
438.582339
 30
0.0
 10
38.708149
 20
438.582339
 30
0.0
  0
LWPOLYLINE
  5
22c
100
AcDbEntity
  8
0
 62
1
100
AcDbPolyline
 90
4
 70
1
 10
37.833379
 20
440.373469
 30
0.0
 10
38.708204
 20
438.939781
 30
0.0
 10
39.582277
 20
440.373519
 30
0.0
 10
38.708054
 20
441.807558
 30
0.0
  0
SPLINE
  5
22d
100
AcDbEntity
  8
0
 62
1
100
AcDbSpline
 70
8
 71
3
 72
8
 73
4
 74
0
 40
0
 40
0
 40
0
 40
0
 40
1
 40
1
 40
1
 40
1
 10
36.672373
 20
438.582339
 30
0.0
 10
36.628145
 20
438.582339
 30
0.0
 10
36.587378
 20
438.606258
 30
0.0
 10
36.565765
 20
438.644819
 30
0.0
  0
SPLINE
  5
22e
100
AcDbEntity
  8
0
 62
1
100
AcDbSpline
 70
8
 71
3
 72
8
 73
4
 74
0
 40
0
 40
0
 40
0
 40
0
 40
1
 40
1
 40
1
 40
1
 10
36.565765
 20
438.644819
 30
0.0
 10
36.544053
 20
438.683230
 30
0.0
 10
36.545006
 20
438.730517
 30
0.0
 10
36.567972
 20
438.768276
 30
0.0
  0
LWPOLYLINE
  5
22f
100
AcDbEntity
  8
0
 62
1
100
AcDbPolyline
 90
2
 70
0
 10
38.813955
 20
438.643265
 30
0.0
 10
38.812500
 20
438.640958
 30
0.0
  0
SPLINE
  5
230
100
AcDbEntity
  8
0
 62
1
100
AcDbSpline
 70
8
 71
3
 72
8
 73
4
 74
0
 40
0
 40
0
 40
0
 40
0
 40
1
 40
1
 40
1
 40
1
 10
40.743825
 20
438.582339
 30
0.0
 10
40.699597
 20
438.582339
 30
0.0
 10
40.658880
 20
438.606258
 30
0.0
 10
40.637217
 20
438.644819
 30
0.0
  0
SPLINE
  5
231
100
AcDbEntity
  8
0
 62
1
100
AcDbSpline
 70
8
 71
3
 72
8
 73
4
 74
0
 40
0
 40
0
 40
0
 40
0
 40
1
 40
1
 40
1
 40
1
 10
40.637217
 20
438.644819
 30
0.0
 10
40.615555
 20
438.683230
 30
0.0
 10
40.616457
 20
438.730517
 30
0.0
 10
40.639424
 20
438.768276
 30
0.0
  0
LWPOLYLINE
  5
232
100
AcDbEntity
  8
0
 62
1
100
AcDbPolyline
 90
3
 70
0
 10
38.708149
 20
438.582339
 30
0.0
 10
38.708096
 20
438.582339
 30
0.0
 10
36.672370
 20
438.582339
 30
0.0
  0
LWPOLYLINE
  5
233
100
AcDbEntity
  8
0
 62
1
100
AcDbPolyline
 90
8
 70
0
 10
36.567972
 20
438.768276
 30
0.0
 10
38.446444
 20
441.848266
 30
0.0
 10
38.490270
 20
441.920173
 30
0.0
 10
36.741071
 20
441.920173
 30
0.0
 10
33.837089
 20
437.158028
 30
0.0
 10
43.728340
 20
437.158028
 30
0.0
 10
44.596596
 20
438.582339
 30
0.0
 10
40.743825
 20
438.582339
 30
0.0
  0
LWPOLYLINE
  5
234
100
AcDbEntity
  8
0
 62
1
100
AcDbPolyline
 90
4
 70
0
 10
40.639424
 20
438.768276
 30
0.0
 10
41.543483
 20
440.251256
 30
0.0
 10
39.794184
 20
440.251256
 30
0.0
 10
38.815509
 20
438.645922
 30
0.0
  0
LWPOLYLINE
  5
235
100
AcDbEntity
  8
0
 62
1
100
AcDbPolyline
 90
4
 70
1
 10
38.490646
 20
442.164774
 30
0.0
 10
37.621538
 20
443.588985
 30
0.0
 10
35.872289
 20
443.588985
 30
0.0
 10
36.741397
 20
442.164774
 30
0.0
  0
LWPOLYLINE
  5
236
100
AcDbEntity
  8
0
 62
1
100
AcDbPolyline
 90
4
 70
1
 10
44.596992
 20
438.826965
 30
0.0
 10
43.728636
 20
440.251276
 30
0.0
 10
41.830306
 20
440.251276
 30
0.0
 10
40.962000
 20
438.826965
 30
0.0
  0
LWPOLYLINE
  5
237
100
AcDbEntity
  8
0
 62
1
100
AcDbPolyline
 90
4
 70
1
 10
32.745107
 20
438.704637
 30
0.0
 10
33.619281
 20
437.270648
 30
0.0
 10
36.529130
 20
442.042421
 30
0.0
 10
35.654254
 20
443.476210
 30
0.0
  0
LWPOLYLINE
  5
238
100
AcDbEntity
  8
0
 62
1
100
AcDbPolyline
 90
4
 70
1
 10
29.548430
 20
443.476225
 30
0.0
 10
28.674458
 20
442.042587
 30
0.0
 10
29.548481
 20
440.608798
 30
0.0
 10
30.423306
 20
442.042486
 30
0.0
  0
LWPOLYLINE
  5
239
100
AcDbEntity
  8
0
 62
1
100
AcDbPolyline
 90
4
 70
1
 10
34.567999
 20
442.164774
 30
0.0
 10
35.436305
 20
443.589086
 30
0.0
 10
29.766540
 20
443.589086
 30
0.0
 10
30.635649
 20
442.164774
 30
0.0
  0
LWPOLYLINE
  5
23a
100
AcDbEntity
  8
0
 62
1
100
AcDbPolyline
 90
4
 70
1
 10
30.635553
 20
441.920218
 30
0.0
 10
29.766395
 20
440.495907
 30
0.0
 10
33.550617
 20
440.495907
 30
0.0
 10
34.418924
 20
441.920218
 30
0.0
  0
ENDSEC
  0
SECTION
  2
OBJECTS
  0
DICTIONARY
  5
C
330
0
100
AcDbDictionary
  3
ACAD_GROUP
350
D
  3
ACAD_MLINESTYLE
350
17
  0
DICTIONARY
  5
D
330
C
100
AcDbDictionary
  0
DICTIONARY
  5
1A
330
C
100
AcDbDictionary
  0
DICTIONARY
  5
17
330
C
100
AcDbDictionary
  3
STANDARD
350
18
  0
DICTIONARY
  5
19
330
C
100
AcDbDictionary
  0
ENDSEC
  0
EOF
